<svg width="360" height="360" viewBox="0 0 360 360" fill="none" xmlns="http://www.w3.org/2000/svg">
<path fill-rule="evenodd" clip-rule="evenodd" d="M0 0C49.7056 0 90 40.2813 90 89.9711C40.2944 89.9711 0 49.6898 0 0ZM180 0C130.294 0 90 40.2813 90 89.9711C40.2944 89.9711 0 130.252 0 179.942C0 229.631 40.2944 269.913 90 269.913C40.2944 269.913 0 310.195 0 359.884C49.7056 359.884 90 319.602 90 269.913C90 319.602 130.294 359.884 180 359.884C229.705 359.884 270 319.602 270 269.913C270 319.602 310.295 359.884 360 359.884C360 310.195 319.705 269.913 270 269.913C319.705 269.913 360 229.631 360 179.942C360 130.252 319.705 89.9711 270 89.9711C319.705 89.9711 360 49.6898 360 0C310.295 0 270 40.2813 270 89.9711C270 40.2813 229.705 0 180 0ZM270 269.913C270 220.224 229.705 179.942 180 179.942C180 229.631 220.295 269.913 270 269.913ZM180 179.942C229.705 179.942 270 139.661 270 89.9711C270 139.661 310.295 179.942 360 179.942C310.295 179.942 270 220.224 270 269.913C220.295 269.913 180 310.195 180 359.884C180 310.195 139.706 269.913 90 269.913C139.706 269.913 180 229.631 180 179.942ZM180 179.942C130.294 179.942 90 220.224 90 269.913C90 220.224 49.7056 179.942 0 179.942C49.7056 179.942 90 139.661 90 89.9711C90 139.661 130.294 179.942 180 179.942ZM180 179.942C180 130.252 220.295 89.9711 270 89.9711C220.295 89.9711 180 49.6898 180 0C180 49.6898 139.706 89.9711 90 89.9711C139.706 89.9711 180 130.252 180 179.942Z" fill="#94C065"/>
</svg>
