<svg xmlns="http://www.w3.org/2000/svg" aria-hidden="true" style="position:absolute;width:0;height:0;overflow:hidden">
  <defs>
    <symbol id="icon-close-menu" viewBox="0 0 32 32">
      <path stroke-linecap="round" stroke-linejoin="round" stroke-width="2.4" d="M29.891 29.891 16 16m0 0L2.109 2.109M16 16 29.891 2.109M16 16 2.109 29.891"/>
    </symbol>
    <symbol id="icon-advantages-01" viewBox="0 0 32 32">
      <path fill="#fc0" d="m12.165 16.002 8.271-13.99L5.514 18.509h8.051L7.878 31.742l11.535-15.739h-7.248z" style="fill:var(--color1, #fc0)"/>
      <path fill="#fc0" d="M18.519 13.342 23.176.185l-8.663 14.654h7.591L10.022 31.325l16.621-17.983h-8.124zM10.859 19.641H6.836c0 .982.692 1.802 1.609 1.99-.242 1.316-.941 2.849-2.067 3.833-.854.746-1.811 1.048-2.843.898-1.303-.19-2.249-.986-2.662-2.241-.983-2.984 1.372-6.776 3.903-9.33 2.18-2.2 3.177-4.312 2.964-6.278-.13-1.196-.684-2.1-1.204-2.704a1.868 1.868 0 0 0-.238-2.328l-.403.407-1.294-1.305a.229.229 0 0 0-.326 0l-.043.043a.234.234 0 0 0 0 .329L5.526 4.26 4.47 5.326 3.176 4.021a.229.229 0 0 0-.326 0l-.043.043a.234.234 0 0 0 0 .329l1.294 1.305-.403.407c.66.666 1.696.718 2.417.16.445.532.909 1.309 1.018 2.316.192 1.771-.746 3.715-2.789 5.776-5.106 5.152-4.391 8.926-4.05 9.96.483 1.466 1.632 2.434 3.154 2.656.197.029.393.043.587.043.986 0 1.924-.369 2.743-1.085 1.254-1.096 2.026-2.812 2.281-4.27a2.024 2.024 0 0 0 1.8-2.019z" style="fill:var(--color1, #fc0)"/>
      <path fill="#fc0" d="m27.563 26.207.403-.407a1.826 1.826 0 0 0-2.417-.16c-.445-.532-.909-1.309-1.018-2.316-.192-1.771.746-3.715 2.789-5.776 5.105-5.152 4.391-8.926 4.05-9.96-.483-1.466-1.632-2.434-3.154-2.656-1.199-.175-2.35.185-3.33 1.042-1.254 1.096-2.026 2.812-2.281 4.27-1.011.107-1.8.97-1.8 2.019h4.023c0-.982-.692-1.802-1.609-1.99.242-1.316.941-2.849 2.067-3.833.854-.746 1.811-1.048 2.843-.898 1.303.19 2.249.986 2.662 2.241.983 2.984-1.371 6.776-3.903 9.33-2.18 2.2-3.177 4.312-2.964 6.278.13 1.196.684 2.1 1.204 2.704a1.868 1.868 0 0 0 .238 2.328l.403-.407 1.294 1.305c.09.091.236.091.326 0l.043-.043a.234.234 0 0 0 0-.329l-1.294-1.305 1.056-1.066 1.294 1.305c.09.091.236.091.326 0l.043-.043a.234.234 0 0 0 0-.329l-1.294-1.305z" style="fill:var(--color1, #fc0)"/>
    </symbol>
    <symbol id="icon-advantages-02" viewBox="0 0 48 32">
      <path fill="#8bbc57" d="M6.811 1.803a4.536 4.536 0 1 0 0 9.071 4.536 4.536 0 0 0 0-9.071zm0 6.653a2.119 2.119 0 1 1-.001-4.237 2.119 2.119 0 0 1 .001 4.237z" style="fill:var(--color2, #8bbc57)"/>
      <path fill="#8bbc57" d="M7.683 1.991H5.939L6.035.756h1.551l.096 1.235zM4.363 2.578 3.13 3.811l-.805-.941 1.097-1.097.941.805zM2.431 5.341v1.744l-1.235-.096V5.438l1.235-.096zM3.019 8.661l1.233 1.233-.941.805-1.097-1.097.805-.941zM5.782 10.593h1.744l-.096 1.235H5.879l-.096-1.235zM9.102 10.005l1.233-1.233.805.941-1.097 1.097-.941-.805zM11.034 7.242V5.498l1.235.096v1.551l-1.235.096zM10.446 3.923 9.213 2.69l.941-.805 1.097 1.097-.805.941z" style="fill:var(--color2, #8bbc57)"/>
      <path fill="#fc0" d="M14.303 15.488c-2.994 0-5.428 2.435-5.428 5.428s2.434 5.427 5.428 5.427c2.991 0 5.425-2.434 5.425-5.427s-2.434-5.428-5.425-5.428zm0 9.7a4.271 4.271 0 0 1-4.274-4.272 4.271 4.271 0 0 1 4.274-4.273 4.27 4.27 0 0 1 4.27 4.273 4.27 4.27 0 0 1-4.27 4.272zm0-9.7c-2.994 0-5.428 2.435-5.428 5.428s2.434 5.427 5.428 5.427c2.991 0 5.425-2.434 5.425-5.427s-2.434-5.428-5.425-5.428zm0 9.7a4.271 4.271 0 0 1-4.274-4.272 4.271 4.271 0 0 1 4.274-4.273 4.27 4.27 0 0 1 4.27 4.273 4.27 4.27 0 0 1-4.27 4.272zm0-13.422a9.15 9.15 0 1 0 0 18.298c5.05 0 9.147-4.096 9.147-9.148 0-5.053-4.097-9.15-9.147-9.15zm0 15.098a5.956 5.956 0 0 1-5.95-5.948 5.958 5.958 0 0 1 5.95-5.949 5.955 5.955 0 0 1 5.946 5.949 5.954 5.954 0 0 1-5.945 5.948zm0-11.376c-2.994 0-5.428 2.435-5.428 5.428s2.434 5.427 5.428 5.427c2.991 0 5.425-2.434 5.425-5.427s-2.434-5.428-5.425-5.428zm0 9.7a4.271 4.271 0 0 1-4.274-4.272 4.271 4.271 0 0 1 4.274-4.273 4.27 4.27 0 0 1 4.27 4.273 4.27 4.27 0 0 1-4.27 4.272z" style="fill:var(--color1, #fc0)"/>
      <path fill="#fc0" d="M15.375 11.932H13.28l.209-2.091h1.678l.209 2.091zM10.74 12.598l-1.814 1.047-.865-1.915 1.453-.839 1.226 1.707zM7.058 15.493l-1.047 1.814-1.707-1.226.839-1.453 1.915.865zM5.318 19.841v2.095l-2.091-.209v-1.678l2.091-.209zM5.984 24.477l1.047 1.814-1.915.865-.839-1.453 1.706-1.226zM8.879 28.158l1.814 1.047-1.226 1.706-1.453-.839.865-1.915zM13.226 29.899h2.095l-.209 2.091h-1.678l-.209-2.091zM17.862 29.232l1.814-1.047.865 1.915-1.453.839-1.226-1.707zM21.543 26.337l1.047-1.814 1.707 1.226-.839 1.453-1.915-.865zM23.284 21.99v-2.095l2.091.209v1.678l-2.091.209zM22.618 17.354l-1.047-1.814 1.915-.865.839 1.453-1.706 1.226zM19.723 13.673l-1.814-1.047 1.226-1.706 1.453.839-.865 1.915zM44.376 10.213a2.07 2.07 0 1 0-4.122.383 2.07 2.07 0 0 0 4.123-.383zm-1.891 2.001a1.817 1.817 0 1 1-.337-3.619 1.817 1.817 0 0 1 .337 3.619zm1.891-2.001a2.07 2.07 0 1 0-4.122.383 2.07 2.07 0 0 0 4.123-.383zm-1.891 2.001a1.817 1.817 0 1 1-.337-3.619 1.817 1.817 0 0 1 .337 3.619zm1.891-2.001a2.07 2.07 0 1 0-4.122.383 2.07 2.07 0 0 0 4.123-.383zm-1.891 2.001a1.817 1.817 0 1 1-.337-3.619 1.817 1.817 0 0 1 .337 3.619zm4.174-2.212a4.362 4.362 0 1 0-8.686.806 4.362 4.362 0 0 0 8.686-.806zm-4.121 2.784c-1.313.122-2.48-.846-2.603-2.16s.847-2.481 2.16-2.603 2.48.847 2.602 2.161a2.394 2.394 0 0 1-2.159 2.602zm-.413-4.442a2.07 2.07 0 1 0 .378 4.12 2.07 2.07 0 0 0-.377-4.12zm.36 3.87a1.817 1.817 0 1 1-.337-3.619 1.817 1.817 0 0 1 .337 3.619zm1.891-2.001a2.07 2.07 0 1 0-4.122.383 2.07 2.07 0 0 0 4.123-.383zm-1.891 2.001a1.817 1.817 0 1 1-.337-3.619 1.817 1.817 0 0 1 .337 3.619zm1.891-2.001a2.07 2.07 0 1 0-4.122.383 2.07 2.07 0 0 0 4.123-.383zm-1.891 2.001a1.817 1.817 0 1 1-.337-3.619 1.817 1.817 0 0 1 .337 3.619z" style="fill:var(--color1, #fc0)"/>
      <path fill="#fc0" d="m42.764 6.164-1.67.155-.017-1.191 1.485-.138.202 1.174zM39.638 7.022l-1.071 1.291-.854-.83.953-1.148.973.687zM38.034 9.84l.155 1.67-1.191.018-.138-1.485 1.174-.202zM38.892 12.967l1.29 1.071-.83.854-1.148-.953.687-.973zM41.709 14.571l1.67-.155.017 1.191-1.485.138-.202-1.174zM44.836 13.713l1.071-1.291.854.83-.953 1.148-.973-.687zM46.44 10.895l-.155-1.67 1.191-.018.138 1.486-1.174.202zM45.582 7.768l-1.291-1.071.83-.854 1.148.953-.687.973z" style="fill:var(--color1, #fc0)"/>
      <path fill="#8bbc57" d="M31.012 7.213a5.808 5.808 0 1 0 0 11.615 5.808 5.808 0 0 0 0-11.615zm0 8.52a2.712 2.712 0 1 1-.002-5.424 2.712 2.712 0 0 1 .002 5.424z" style="fill:var(--color2, #8bbc57)"/>
      <path fill="#8bbc57" d="M32.128 7.454h-2.233l.123-1.581h1.986l.123 1.581zM27.877 8.207l-1.579 1.579-1.03-1.205 1.405-1.405 1.205 1.03zM25.403 11.744v2.233l-1.581-.123v-1.986l1.581-.123zM26.156 15.995l1.579 1.579-1.205 1.031-1.405-1.405 1.03-1.205zM29.694 18.469h2.233l-.123 1.581h-1.986l-.123-1.581zM33.944 17.717l1.579-1.579 1.03 1.205-1.404 1.405-1.205-1.031zM36.418 14.179v-2.233l1.581.123v1.986l-1.581.123zM35.666 9.928l-1.579-1.579 1.205-1.03 1.404 1.405-1.03 1.205z" style="fill:var(--color2, #8bbc57)"/>
      <path fill="#3d3d3d" d="m2.65 1.59-.063-.088c.113-.081.18-.121.183-.123l.055.093c-.001.001-.067.039-.175.117zM30.962 20.259a8.863 8.863 0 0 1-.435-.014l.006-.108c.14.008.285.013.429.014l-.001.108zm.434-.008-.005-.108c.144-.007.287-.019.425-.035l.013.107a6.016 6.016 0 0 1-.433.036zm-1.301-.044a7.414 7.414 0 0 1-.43-.061l.018-.106c.138.024.281.044.424.06l-.012.107zm2.162-.06-.021-.106a4.79 4.79 0 0 0 .413-.101l.031.104c-.136.04-.278.075-.422.104zm-3.018-.087a6.13 6.13 0 0 1-.419-.115l.032-.103c.134.042.273.079.412.113l-.025.105zm3.851-.159-.04-.1c.132-.053.261-.113.385-.178l.05.096c-.127.067-.26.128-.395.182zm-4.68-.099a5.398 5.398 0 0 1-.399-.173l.046-.097c.128.061.26.118.392.169l-.039.101zm5.449-.306-.06-.09c.117-.078.231-.164.34-.254l.069.083a4.167 4.167 0 0 1-.349.261zm-6.234-.068a5.951 5.951 0 0 1-.37-.229l.06-.09c.118.079.241.155.363.224l-.053.094zm-.723-.482a7.116 7.116 0 0 1-.336-.276l.071-.081c.108.095.219.186.331.272l-.066.086zm7.627-.006-.077-.076c.097-.099.193-.205.285-.317l.083.069a4.82 4.82 0 0 1-.292.324zm-8.281-.565a10.056 10.056 0 0 1-.303-.312l.079-.073c.099.107.199.211.299.308l-.076.077zm8.836-.106-.089-.062c.08-.114.158-.235.232-.36l.093.055c-.076.127-.155.25-.236.366zm-9.427-.533c-.09-.106-.182-.219-.274-.336l.085-.067c.092.116.183.229.272.333l-.083.07zm9.874-.213-.096-.05c.063-.122.127-.252.188-.386l.098.045a8.942 8.942 0 0 1-.19.391zm-10.411-.468c-.086-.116-.17-.233-.254-.351l.088-.062c.083.118.167.234.253.349l-.087.064zm10.773-.323-.1-.041c.052-.128.104-.264.155-.402l.102.037c-.051.139-.103.276-.156.405zm-11.274-.385a45.01 45.01 0 0 1-.242-.359l.09-.06.241.358-.089.061zm11.573-.43-.103-.034c.045-.135.089-.272.132-.411l.103.032c-.043.139-.087.277-.132.413zm-12.054-.289-.239-.361.09-.06.239.362-.09.06zm12.309-.54-.104-.03c.039-.137.078-.276.116-.416l.104.028-.116.417zm-12.789-.181c-.08-.119-.162-.239-.244-.357l.089-.061.244.358-.09.06zm13.017-.656-.105-.027.107-.419.105.026-.107.42zm-13.51-.054a14.775 14.775 0 0 0-.256-.347l.086-.065c.087.116.173.232.257.35l-.088.063zm-.52-.688a12.139 12.139 0 0 0-.275-.332l.082-.07c.092.107.185.219.277.335l-.084.068zm14.241-.097-.105-.026.104-.42.105.026-.104.42zm-14.802-.557a9.847 9.847 0 0 0-.299-.309l.076-.077c.101.1.203.205.303.313l-.079.073zm15.01-.282-.105-.026.106-.42.105.027-.106.419zm-31.221-.261a5.762 5.762 0 0 1-.435-.024l.01-.108c.142.013.286.021.428.023l-.002.108zm.436-.009-.006-.108c.142-.008.286-.021.426-.039l.014.107a5.687 5.687 0 0 1-.434.04zm15.163-.051a7.64 7.64 0 0 0-.327-.278l.068-.084c.111.089.222.184.331.281l-.072.081zm-16.467-.019a6.226 6.226 0 0 1-.428-.085l.025-.105c.138.033.279.061.42.084l-.017.107zm2.168-.042-.022-.106c.139-.029.279-.063.416-.103l.03.104c-.139.04-.281.075-.424.105zm-3.016-.159a6.24 6.24 0 0 1-.411-.145l.04-.101c.132.052.267.1.404.143l-.032.103zm3.855-.071-.032-.103.412-.129.033.103c-.137.043-.274.087-.413.129zm29.296-.226-.104-.028c.037-.14.074-.28.113-.42l.104.029c-.039.139-.076.279-.113.418zm-16.504-.02a7.615 7.615 0 0 0-.355-.24l.058-.091c.122.077.243.159.36.243l-.063.088zm-17.457-.002a5.895 5.895 0 0 1-.386-.203l.054-.094c.123.07.25.138.379.199l-.047.097zm5.489-.013-.033-.103.411-.133.033.103-.411.133zm.823-.268-.034-.103.411-.134.033.103-.411.134zm-7.068-.153a6.097 6.097 0 0 1-.351-.258l.067-.085c.111.088.227.173.345.254l-.061.089zm17.49-.022a6.51 6.51 0 0 0-.381-.196l.047-.097c.13.062.26.129.386.199l-.052.095zm-9.6-.091-.033-.103.413-.13.032.103c-.137.042-.274.086-.412.13zm.825-.255-.031-.104c.139-.041.277-.082.416-.121l.029.104c-.138.039-.276.079-.414.121zm26.232-.01-.104-.03c.04-.139.082-.277.125-.415l.103.032c-.042.137-.084.275-.124.413zm-18.229-.013a7.533 7.533 0 0 0-.363-.138l-.038-.013.035-.102.028.01c.134.047.258.094.378.143l-.041.1zm-17.4-.153a5.28 5.28 0 0 1-.307-.31l.08-.073c.096.104.197.207.301.304l-.074.079zm10.227-.059-.028-.104c.14-.037.28-.073.42-.107l.025.105c-.139.034-.279.069-.418.106zm6.362-.071a11.214 11.214 0 0 0-.414-.117l.027-.105c.138.036.279.075.418.118l-.031.103zm-5.524-.132-.023-.106c.142-.031.283-.06.425-.087l.02.106a12.62 12.62 0 0 0-.422.086zm4.692-.084a9.818 9.818 0 0 0-.422-.081l.018-.106c.142.024.286.052.427.082l-.023.106zm-3.846-.076-.017-.107c.145-.023.29-.043.43-.06l.013.107c-.139.017-.282.037-.426.06zm2.999-.069a8.954 8.954 0 0 0-.427-.044l.009-.108c.143.012.289.027.432.045l-.013.107zm-2.145-.036-.009-.108c.145-.013.291-.022.433-.029l.005.108c-.141.006-.285.016-.429.028zm1.288-.033a9.316 9.316 0 0 0-.373-.007h-.057l-.001-.108h.057c.125 0 .251.002.377.007l-.004.108zM1.32 10.092a5.47 5.47 0 0 1-.253-.356l.091-.059c.077.119.161.236.248.349l-.085.066zm36.474-.015-.103-.034c.046-.138.093-.274.142-.41l.102.037c-.048.135-.095.271-.141.407zM.844 9.36a5.271 5.271 0 0 1-.191-.393l.099-.043c.057.13.119.259.187.384l-.095.051zm37.243-.094-.101-.039c.053-.135.108-.269.165-.401l.099.043a12.76 12.76 0 0 0-.164.398zM.496 8.561a5.193 5.193 0 0 1-.123-.419l.105-.026c.035.138.075.276.121.41l-.102.035zm37.932-.085-.097-.046a9.35 9.35 0 0 1 .194-.388l.095.05a9.812 9.812 0 0 0-.192.384zm.4-.76-.093-.055a7.47 7.47 0 0 1 .23-.37l.09.059a8.723 8.723 0 0 0-.227.366zM.284 7.715a5.724 5.724 0 0 1-.034-.234c-.008-.067-.016-.133-.022-.198l.108-.011.022.195c.01.077.021.154.034.229l-.107.018zM39.3 6.998l-.087-.064c.087-.117.177-.232.268-.341l.083.069c-.09.107-.179.22-.264.336zM.195 6.849a7.359 7.359 0 0 1-.009-.363v-.072l.108.001v.071c0 .118.003.239.009.358l-.108.005zm39.653-.506-.078-.074c.1-.106.205-.208.31-.305l.073.08a6.133 6.133 0 0 0-.304.3zM.312 5.987l-.108-.008c.01-.145.025-.291.044-.433l.107.014a7.49 7.49 0 0 0-.044.426zm40.165-.222-.068-.084c.112-.09.23-.177.348-.26l.062.089a6.194 6.194 0 0 0-.342.255zm.702-.485-.055-.093c.124-.073.252-.144.382-.209l.049.096a6.165 6.165 0 0 0-.375.206zM.426 5.138.32 5.117c.029-.143.063-.285.101-.424l.104.029a6.331 6.331 0 0 0-.1.417zm.228-.825-.102-.036c.048-.136.102-.273.16-.406l.099.043c-.057.13-.11.264-.157.398zm.343-.784-.096-.05c.068-.128.141-.255.217-.378l.092.057a6.229 6.229 0 0 0-.213.371zm.453-.727-.087-.064c.085-.117.176-.232.27-.343l.082.07a5.773 5.773 0 0 0-.265.337zm.554-.652-.077-.076c.103-.105.21-.205.318-.299l.071.082a5.702 5.702 0 0 0-.312.293zM41.989 4.873l-.042-.1c.066-.028.134-.055.202-.081l.038.101c-.067.026-.134.052-.199.079z" style="fill:var(--color3, #3d3d3d)"/>
      <path fill="#3d3d3d" d="M3.134 2.241a.88.88 0 1 0-.67-1.629.88.88 0 0 0 .67 1.629zM18.223 11.293a.881.881 0 1 0 0-1.762.881.881 0 0 0 0 1.762zM42.169 5.624a.88.88 0 1 0 .001-1.76.88.88 0 0 0-.001 1.76zM31.05 21.26a.881.881 0 1 0 0-1.762.881.881 0 0 0 0 1.762z" style="fill:var(--color3, #3d3d3d)"/>
    </symbol>
    <symbol id="icon-advantages-03" viewBox="0 0 54 32">
      <path fill="#fc0" d="M48.282 7.873a12.948 12.948 0 0 0-3.094-2.834l.57-3.392L41.338.04l-1.741 2.966a12.937 12.937 0 0 0-4.192.185L33.409.389l-4.262 1.989.866 3.329a12.948 12.948 0 0 0-2.834 3.094l-3.392-.57-1.607 4.42 2.966 1.741a12.937 12.937 0 0 0 .185 4.192l-2.802 1.995 1.989 4.262 3.329-.866a12.948 12.948 0 0 0 3.094 2.834l-.57 3.392 4.42 1.607 1.741-2.966c1.379.165 2.793.108 4.192-.185l1.995 2.802 4.262-1.989-.866-3.329a12.948 12.948 0 0 0 2.834-3.094l3.392.57 1.607-4.42-2.966-1.741a12.909 12.909 0 0 0-.185-4.192l2.802-1.995-1.989-4.262-3.329.866zm-6.486 16.046a8.823 8.823 0 1 1-7.463-15.99 8.823 8.823 0 0 1 7.463 15.99z" style="fill:var(--color1, #fc0)"/>
      <path fill="#fe9f73" d="m20.662 3.792-1.061 1.409s-.339.491-.8.237l-.401.694a.62.62 0 0 1-.741.279 1.624 1.624 0 0 1-.439-.236c-.476-.359-.465-.91-.37-1.119s.857-.972.857-.972l.301-.43 1.278-1.584 1.378 1.722z" style="fill:var(--color4, #fe9f73)"/>
      <path fill="#101010" d="M18.982 3.631a.025.025 0 0 1-.01-.016.024.024 0 0 1 .021-.028c.005-.001.488-.074.586.314.003.013-.005.027-.018.03s-.027-.005-.03-.018c-.087-.344-.512-.28-.53-.277a.025.025 0 0 1-.019-.005zM19.889 4.128a.025.025 0 0 1-.01-.018c-.001-.014.009-.026.023-.026s.324-.02.367.173c.003.013-.006.027-.019.03s-.027-.005-.03-.019c-.033-.151-.312-.134-.315-.134a.026.026 0 0 1-.017-.005zM19.322 4.013c-.025.033-.072.039-.104.015s-.039-.071-.015-.104c.025-.033.071-.039.104-.015s.039.071.015.104zM20 4.43c-.025.033-.072.039-.104.015s-.039-.072-.015-.104c.025-.033.072-.039.104-.015s.039.072.015.104zM19.281 2.191l-.022.721s.712 1.149 1.577 1.075.873-.416.897-.762c.012-.17-.169-.671-.752-.806-.318-.074-.256-.522-.654-.573s-.932-.022-.977.114a3.596 3.596 0 0 0-.069.232z" style="fill:var(--color5, #101010)"/>
      <path fill="#101010" d="M19.45 2.007s-.441-.367-.901-.023-.462.705-.557.84c-.095.135-.851.954-.179 1.356l1.271-1.337.223-.746.144-.091z" style="fill:var(--color5, #101010)"/>
      <path fill="#fe9f73" d="M18.494 3.8a.447.447 0 1 0-.012-.894.447.447 0 0 0 .012.894z" style="fill:var(--color4, #fe9f73)"/>
      <path fill="#f07162" d="M18.298 3.552a.186.186 0 0 1-.056-.217c.03-.08.101-.128.179-.121.116.01.164.096.183.148a.202.202 0 0 0-.006-.142c-.041-.092-.15-.129-.151-.13-.007-.002-.01-.009-.008-.016s.009-.01.016-.008c.005.002.12.041.166.143a.244.244 0 0 1-.007.199l-.017.041-.006-.044c-.001-.006-.024-.153-.171-.166-.082-.007-.134.052-.154.105-.021.055-.02.137.048.188l.002.002c.005.004.007.012.003.017s-.012.007-.017.003l-.002-.002z" style="fill:var(--color6, #f07162)"/>
      <path fill="#101010" d="M19.839 5.029s-.589 1.052-1.248.608c-.943-.634-.641-1.218-.376-1.682l.649-.881.22-.232a.563.563 0 0 1-.084.344c-.139.224-.518.823-.484.887.047.091 1.251.756 1.323.954z" style="fill:var(--color5, #101010)"/>
      <path fill="#f07162" d="M19.23 4.574a.012.012 0 0 1-.004-.014.013.013 0 0 1 .016-.008l.248.084.29-.515c.003-.006.011-.008.017-.005s.008.011.005.017l-.3.533-.268-.091-.003-.002z" style="fill:var(--color6, #f07162)"/>
      <path fill="#fbfdfc" d="m18.985 4.619.42.301s-.178.129-.331.019c-.154-.11-.088-.32-.088-.32z" style="fill:var(--color7, #fbfdfc)"/>
      <path fill="#fe9f73" d="M23.416 11.311c.253-.289.662-.823.771-1.056v-.001a.268.268 0 0 0 .022-.058l.001-.002.003-.013c.012-.072.034-.152.065-.235.059-.271.085-.561.122-.643.035-.075.182-.163.279-.215a.198.198 0 0 0 .101-.225c-.015-.051-.052-.099-.132-.121 0 0 .071-.247-.154-.277 0 0 .081-.271-.28-.23 0 0-.026-.154-.197-.159s-.54.15-.592.196c-.052.046-.612.811-.612.811s-.505 1.055-.545 1.105l1.148 1.121z" style="fill:var(--color4, #fe9f73)"/>
      <path fill="#f07162" d="M23.468 8.74a.029.029 0 0 0 .014-.008c.001-.002.144-.188.216-.239.058-.041.368-.171.523-.234.011-.005.017-.018.013-.029s-.017-.017-.029-.012c-.019.008-.456.184-.533.239s-.22.241-.226.249c-.007.01-.006.024.004.031.005.004.011.005.017.004zM23.821 8.985a.02.02 0 0 0 .014-.009c.001-.002.111-.152.198-.223s.467-.264.471-.266c.011-.006.015-.019.01-.03s-.019-.015-.03-.01c-.016.008-.388.196-.479.271s-.201.225-.206.231a.022.022 0 0 0 .005.031c.005.004.011.005.017.004zM24.064 9.188a.022.022 0 0 0 .015-.01c.001-.001.071-.104.156-.18s.418-.232.421-.234c.011-.005.016-.018.011-.029s-.018-.016-.029-.01c-.014.007-.342.161-.432.241s-.161.184-.164.189a.022.022 0 0 0 .006.031c.005.003.011.004.016.003z" style="fill:var(--color6, #f07162)"/>
      <path fill="#fe9f73" d="m2.257 29.898 1.257-1.36s-1.145-.339-1.191-.328-1.024.338-1.024.338-.268.478-.257.671c.011.193.113.646.317.771s.238.215.42.147c.181-.068.478-.239.478-.239zM13.028 31.302l-1.644.006-.005-.458.646-1.7 1.909.215-.906 1.937z" style="fill:var(--color4, #fe9f73)"/>
      <path fill="#101010" d="M11.364 31.436h1.793l.727-.792 1.33.792h.286a.21.21 0 0 1 .208.164.204.204 0 0 1-.2.244h-4.169a.056.056 0 0 1-.056-.055v-.272a.08.08 0 0 1 .081-.081z" style="fill:var(--color5, #101010)"/>
      <path fill="#3d3d3d" d="M11.38 31.439v-.736s.302-.406.762-.199c0 0 .695.493 1.308-.104l1.522.675s.417.14.53.363h-4.123z" style="fill:var(--color3, #3d3d3d)"/>
      <path fill="#101010" d="M11.395 30.703h-.031v.732h.031v-.732zM12.765 30.711c.058 0 .093-.005.095-.005l-.005-.03c-.004 0-.363.051-.705-.184l-.017.025c.245.168.499.194.632.194zM11.577 31.146l-.017.025.195.131.017-.025-.195-.131zM11.714 31.103l-.017.025.194.131.017-.025-.194-.131z" style="fill:var(--color5, #101010)"/>
      <path fill="#101010" d="M15.649 31.808a.219.219 0 0 0-.142-.386h-4.122a.118.118 0 0 0-.118.118v.203h.031v-.203c0-.048.039-.087.087-.087h4.122a.19.19 0 0 1 .122.333l.02.023z" style="fill:var(--color5, #101010)"/>
      <path fill="#101010" d="m15.494 31.444.028-.013c-.003-.007-.087-.178-.399-.311a290.17 290.17 0 0 1-1.666-.734l-.012.028c.014.006 1.361.603 1.667.734.3.128.382.295.383.296z" style="fill:var(--color5, #101010)"/>
      <path fill="#3d3d3d" d="M11.049 18.064s2.864 2.501 5.246 3.136l-4.609 8.031s.96 1.029 2.555 1.029c0 0 6.302-9.185 6.305-10.259.002-.769-5.447-4.366-5.447-4.366l-4.05 1.17v1.26z" style="fill:var(--color3, #3d3d3d)"/>
      <path fill="#3d3d3d" d="m.992 28.234 9-15.21 2.662-.167 2.445 2.777s-1.035 1.485-2.7 3.015-3.6 2.902-5.647 6.052c-2.047 3.15-3.307 4.995-3.307 4.995s-1.462-.585-2.452-1.463zM3.058 31.548H1.355l-.994-2.625a.216.216 0 0 1 .176-.291l.779-.093s.081 1.108.941 1.36l-.145.877c.41.156.515.126.946.354.24.127 0 .418 0 .418z" style="fill:var(--color3, #3d3d3d)"/>
      <path fill="#8bbc57" d="M15.352 15.822s.433-2.596.816-3.046.742-.748.742-.748c.564 1.242 1.554 2.999 1.857 3.157.517.27 1.8-.518 2.812-1.642s2.137-2.317 2.137-2.317l-1.26-1.53-1.776 1.572-.946.835s-1.305-5.242-1.642-6.412-1.237-1.013-1.237-1.013c-1.305.225-6.862 8.347-6.862 8.347s1.444.435 1.935.653c1.417.63 1.518 2.062 3.425 2.145z" style="fill:var(--color2, #8bbc57)"/>
      <path fill="#101010" d="M18.977 15.254a.464.464 0 0 1-.223-.047c-.271-.146-.921-1.321-.949-1.371-1.389-2.179-1.652-4.948-1.654-4.976l.051-.005c.003.028.264 2.784 1.647 4.954.008.013.671 1.213.929 1.352.25.135.947-.053 1.886-.784.926-.722 2.395-2.487 2.41-2.504l.039.033c-.015.018-1.487 1.787-2.418 2.512-.764.595-1.366.836-1.719.836z" style="fill:var(--color5, #101010)"/>
      <path fill="#101010" d="m19.542 12.864-.049-.014.214-.748-.939-3.729.049-.012.942 3.743-.218.762z" style="fill:var(--color5, #101010)"/>
      <path fill="#101010" d="m22.441 9.677-2.725 2.405.034.038 2.725-2.405-.034-.038zM15.256 15.85c-.73 0-1.497-.459-2.281-1.366-.711-.823-1.919-1.098-1.931-1.101l.011-.05c.012.003 1.237.281 1.959 1.117.801.926 1.581 1.38 2.317 1.347.041-.209.396-2.018.635-2.688l.048.017c-.251.704-.633 2.68-.637 2.7l-.004.02-.02.001a1.57 1.57 0 0 1-.097.003zM.344 28.846l.949 2.54c.037.097.13.162.234.162h1.471c.042 0 .081.022.101.058.01.018.019.04.025.064.019.079-.033.144-.114.144H1.373a.29.29 0 0 1-.273-.193l-.94-2.725a.094.094 0 0 1 .032-.109.09.09 0 0 1 .057-.015.114.114 0 0 1 .095.075z" style="fill:var(--color5, #101010)"/>
      <path fill="#101010" d="M3.012 31.826V31.8c.035 0 .066-.013.085-.038s.025-.056.017-.09a.257.257 0 0 0-.024-.061.103.103 0 0 0-.09-.052H1.529a.263.263 0 0 1-.246-.17l-.949-2.54a.097.097 0 0 0-.083-.066.074.074 0 0 0-.049.012c-.028.019-.039.058-.027.094l-.024.008a.107.107 0 0 1 .037-.124.101.101 0 0 1 .065-.017.124.124 0 0 1 .106.083l.949 2.54a.24.24 0 0 0 .223.154h1.471a.13.13 0 0 1 .113.065.251.251 0 0 1 .026.067c.01.042.003.082-.021.112s-.061.047-.105.047zM1.178 28.798l.139-.249.095.11.069.161.043.085.033.153.038.197-.004.103-.128.073s-.046-.117-.049-.12-.236-.513-.236-.513z" style="fill:var(--color5, #101010)"/>
      <path fill="#fe9f73" d="m1.594 29.33.038.226s.065.153.14.198l.099.057.183.062.171.021.008-.09-.639-.474z" style="fill:var(--color4, #fe9f73)"/>
      <path fill="#101010" d="M3.12 31.196c-.17-.187-1.003-.406-1.011-.408l.006-.025c.035.009.849.223 1.024.416l-.019.017zM1.851 30.98l-.015-.021.264-.191.142-.859-.013-.002c-.258-.034-.611-.08-.646-.526-.051-.666-.273-.831-.275-.833l.015-.021c.01.007.233.171.286.852.033.426.36.469.623.503l.039.005-.148.895-.273.197z" style="fill:var(--color5, #101010)"/>
    </symbol>
    <symbol id="icon-facebook" viewBox="0 0 32 32">
      <path fill="#1877f2" d="M32 16c0-8.836-7.164-16-16-16S0 7.163 0 16c0 7.986 5.851 14.605 13.5 15.806V20.625H9.437V16H13.5v-3.525c0-4.01 2.389-6.225 6.044-6.225 1.75 0 3.581.313 3.581.313v3.938h-2.017c-1.988 0-2.608 1.233-2.608 2.499v3.001h4.438l-.709 4.625h-3.728v11.181c7.649-1.2 13.5-7.819 13.5-15.806z" style="fill:var(--color8, #1877f2)"/>
      <path fill="#fff" d="M22.228 20.625 22.937 16h-4.438v-3.001c0-1.265.62-2.499 2.608-2.499h2.017V6.562s-1.831-.313-3.582-.313c-3.655 0-6.043 2.215-6.043 6.225v3.525H9.436v4.625h4.063v11.181c.827.13 1.663.195 2.5.194s1.673-.065 2.5-.194V20.624h3.728z" style="fill:var(--color9, #fff)"/>
    </symbol>
    <symbol id="icon-gmail" viewBox="0 0 47 32">
      <path fill="#4285f4" d="M10.581 31.845V15.446l-5.576-4.653-5-2.582v20.74c0 1.601 1.422 2.894 3.173 2.894h7.404z" style="fill:var(--color10, #4285f4)"/>
      <path fill="#34a853" d="M35.965 31.845h7.404c1.756 0 3.173-1.298 3.173-2.894V8.211l-5.664 2.957-4.913 4.277v16.4z" style="fill:var(--color11, #34a853)"/>
      <path fill="#ea4335" d="m10.581 15.444-.759-6.408.759-6.133 12.692 8.682 12.692-8.682.849 5.802-.849 6.739-12.692 8.682-12.692-8.682z" style="fill:var(--color12, #ea4335)"/>
      <path fill="#fbbc04" d="M35.965 2.902v12.541l10.577-7.235V4.349c0-3.579-4.479-5.619-7.615-3.473l-2.962 2.026z" style="fill:var(--color13, #fbbc04)"/>
      <path fill="#c5221f" d="m.005 8.208 10.577 7.235V2.902L7.62.876C4.479-1.271.005.77.005 4.349v3.859z" style="fill:var(--color14, #c5221f)"/>
    </symbol>
    <symbol id="icon-hamburger-menu" viewBox="0 0 46 32">
      <path fill="#fff" d="M44.19 32H1.523c-.404 0-.792-.153-1.077-.426S0 30.931 0 30.545s.161-.756.446-1.029a1.56 1.56 0 0 1 1.077-.426H44.19c.404 0 .792.153 1.078.426s.446.643.446 1.029-.16.756-.446 1.029A1.56 1.56 0 0 1 44.19 32zM44.19 17.455H1.523c-.404 0-.792-.153-1.077-.426S0 16.386 0 16c0-.386.161-.756.446-1.028s.673-.426 1.077-.426H44.19c.404 0 .792.153 1.078.426s.446.643.446 1.028-.16.756-.446 1.029a1.56 1.56 0 0 1-1.078.426zM44.19 2.909H1.523c-.404 0-.792-.153-1.077-.426S0 1.84 0 1.454C0 1.068.161.698.446.426S1.119 0 1.523 0H44.19c.404 0 .792.153 1.078.426s.446.643.446 1.028-.16.756-.446 1.029a1.56 1.56 0 0 1-1.078.426z" style="fill:var(--color9, #fff)"/>
    </symbol>
    <symbol id="icon-logo" viewBox="0 0 32 32">
      <path fill="#8bbc57" d="m17.531 18.909-.523 1.554.56 1.646h-.528l-.41-1.266-.414 1.266h-.469l.56-1.646-.523-1.554h.519l.378 1.179.387-1.179h.464zm1.955 0-.523 1.554.56 1.646h-.528l-.41-1.266-.414 1.266h-.469l.56-1.646-.523-1.554h.519l.378 1.179.387-1.179h.464zm.286 0h.5v3.2h-.5v-3.2zm2.328 0c.261 0 .449.061.564.183.118.122.177.306.177.553v.114c0 .165-.026.3-.077.407s-.133.186-.246.238a.49.49 0 0 1 .287.256.955.955 0 0 1 .086.43v.261c0 .247-.064.436-.191.567-.127.128-.317.192-.569.192h-.787v-3.2h.755zm-.255 1.76v.983h.287c.085 0 .149-.023.191-.069.046-.046.068-.128.068-.247v-.279c0-.149-.026-.252-.077-.306-.048-.055-.13-.082-.246-.082h-.223zm0-1.303v.846h.196c.094 0 .167-.024.218-.073.055-.049.082-.137.082-.265v-.178c0-.116-.021-.2-.064-.252-.039-.052-.103-.078-.191-.078h-.241zm1.344-.457h.5v3.2h-.5v-3.2zm1.521 1.925-.155.293v.983h-.5v-3.2h.5v1.394l.664-1.394h.491l-.696 1.426.696 1.774h-.514l-.487-1.275zM6.528 9.6c.254 0 .443.067.565.201.126.134.189.33.189.588v.415c0 .258-.063.454-.189.588-.123.134-.311.2-.565.2h-.239v1.199h-.506V9.6h.745zm-.239.456v1.08h.239c.08 0 .141-.021.184-.064s.064-.122.064-.237v-.479c0-.115-.021-.194-.064-.237s-.104-.064-.184-.064h-.239zM7.512 9.6h.506v3.191h-.506V9.6zm1.381 1.345h.694v.456h-.694v.934h.873v.456H8.387V9.6h1.379v.456h-.873v.889zm2.594-.889h-.588v1.942c0 .161-.02.293-.06.397s-.094.185-.161.246a.596.596 0 0 1-.235.123 1.002 1.002 0 0 1-.271.037h-.124a.872.872 0 0 1-.12-.009v-.456c.028.003.057.005.087.005h.087a.34.34 0 0 0 .202-.059c.058-.04.087-.122.087-.246V9.602h1.6v3.191h-.506v-2.735z" style="fill:var(--color2, #8bbc57)"/>
      <path fill="#fc0" d="M8.816 17.712c.044.005.09.007.139.007h.139a.526.526 0 0 0 .322-.097c.093-.065.139-.199.139-.403v-3.983h2.547v4.476h.41v1.343h-.82v-.597H9.635v.597h-.82v-1.343zm1.545-.552c0 .219-.022.403-.066.552h1.003v-3.73h-.937v3.178zm3.665-3.924c.405 0 .705.109.9.328.2.219.3.54.3.962v.679c0 .423-.1.743-.3.962-.195.219-.495.328-.9.328h-.381v1.962h-.805v-5.221h1.186zm-.38.746v1.768h.381c.127 0 .225-.035.293-.104s.102-.199.102-.388v-.783c0-.189-.034-.318-.102-.388s-.166-.104-.293-.104h-.381zm1.947-.746h.805v5.221h-.805v-5.221zm3.106 3.708.549-3.707h1.12v5.221h-.761v-3.745l-.556 3.745h-.761l-.6-3.692v3.692h-.703v-5.221h1.12l.593 3.707zM13.994 27.638c.662.718.481 1.893.481 1.893s-1.255.011-1.917-.707c-.662-.718-.482-1.893-.482-1.893s1.255-.011 1.917.707zM12.442 30.074c.819-.558 2.038-.279 2.038-.279s-.108 1.183-.926 1.74c-.818.558-2.037.279-2.037.279s.107-1.183.926-1.74zM10.096 29.765c.868-.485 2.056-.103 2.056-.103s-.22 1.169-1.089 1.654c-.868.485-2.055.103-2.055.103s.22-1.169 1.089-1.654zM8.058 28.85c.957-.301 2.032.309 2.032.309s-.476 1.099-1.432 1.4c-.957.301-2.032-.309-2.032-.309s.476-1.099 1.432-1.4zM6.258 27.587c1.005-.078 1.895.758 1.895.758s-.738.961-1.743 1.038c-1.005.078-1.895-.758-1.895-.758s.738-.961 1.743-1.038zM4.742 25.819c.976.235 1.533 1.298 1.533 1.298s-1.027.683-2.003.448c-.976-.235-1.533-1.298-1.533-1.298s1.027-.683 2.003-.448zM3.584 23.889c.913.402 1.251 1.546 1.251 1.546s-1.143.491-2.056.088c-.913-.402-1.251-1.546-1.251-1.546s1.143-.49 2.056-.088zM2.88 21.748c.76.625.752 1.812.752 1.812s-1.241.174-2.001-.452c-.76-.625-.752-1.812-.752-1.812s1.241-.174 2.002.452z" style="fill:var(--color1, #fc0)"/>
      <path fill="#fc0" d="M2.591 19.508c.607.761.339 1.921.339 1.921s-1.252-.073-1.859-.834-.339-1.921-.339-1.921 1.252.073 1.859.834zM2.644 17.14c.486.835.046 1.947.046 1.947s-1.228-.241-1.714-1.076C.49 17.176.93 16.064.93 16.064s1.228.241 1.714 1.076zM11.743 27.266c.571.785.248 1.933.248 1.933s-1.247-.126-1.818-.911-.248-1.933-.248-1.933 1.247.126 1.818.911z" style="fill:var(--color1, #fc0)"/>
      <path fill="#fc0" d="M9.641 26.382c.303.909-.359 1.918-.359 1.918s-1.154-.465-1.457-1.374c-.303-.909.358-1.918.358-1.918s1.154.465 1.457 1.374zM7.75 25.014c.149.943-.672 1.842-.672 1.842s-1.062-.63-1.211-1.573c-.149-.943.672-1.842.672-1.842s1.062.631 1.211 1.574zM6.233 23.172c-.012.954-.974 1.717-.974 1.717s-.942-.783-.93-1.737c.012-.954.974-1.717.974-1.717s.942.783.93 1.737z" style="fill:var(--color1, #fc0)"/>
      <path fill="#fc0" d="M5.28 20.996c-.232.928-1.346 1.475-1.346 1.475s-.739-.959-.507-1.887c.232-.928 1.346-1.475 1.346-1.475s.739.959.507 1.887zM4.801 18.295c-.223.892-1.294 1.418-1.294 1.418s-.71-.922-.487-1.814c.223-.892 1.294-1.418 1.294-1.418s.71.922.487 1.814zM4.097 15.678c-.056.915-1.016 1.608-1.016 1.608s-.868-.791-.812-1.707c.056-.915 1.016-1.608 1.016-1.608s.868.791.812 1.707z" style="fill:var(--color1, #fc0)"/>
      <path fill="#fc0" d="M2.866 18.956c.07 4.541 3.159 8.658 7.711 10.144 1.249.407 2.559.599 3.878.595.084 0 .231-.121.084-.12-4.737.016-9.089-2.785-10.743-6.999a10.478 10.478 0 0 1-.711-3.676c-.001-.066-.22-.024-.219.057z" style="fill:var(--color1, #fc0)"/>
      <path fill="#8bbc57" d="m15.45 31.756-.119-.014-.009-1.866-.009-1.865.538-.028c5.898-.295 10.842-4.179 12.101-9.501 1.089-4.613-.87-9.439-4.967-12.237-2.134-1.458-4.618-2.271-7.254-2.378l-.538-.023-.01-1.938-.01-1.934.426-.028c.231-.016.715-.022 1.072-.009 1.061.035 1.036.002 1.003 1.362-.012.531-.02.975-.013.985s.163.043.347.064c.748.098 1.586.283 2.324.515.217.068.398.122.398.118.004-.004.075-.171.157-.372.457-1.079.657-1.48.758-1.531.173-.092.372-.067.748.091.409.172 1.346.633 1.563.77.174.108.29.282.291.431 0 .065-.175.456-.446.995l-.447.886.337.224c.67.448 1.286.939 1.845 1.467l.279.268.748-.644c.791-.68.866-.724 1.105-.646.185.061.718.658 1.343 1.513.269.366.328.555.246.762-.029.069-.298.3-.827.702l-.784.6.2.326c.299.486.736 1.382.977 1.984l.209.53.959-.252c.808-.215.977-.249 1.071-.22a.558.558 0 0 1 .301.278c.066.127.353 1.289.446 1.794l.03.41-.023.219c-.053.124-.104.182-.19.219-.065.026-.53.13-1.031.231l-.913.183.026.254c.012.142.03.294.038.345.03.189.023 1.778-.011 2.16-.021.218-.031.4-.027.404.007.004.437.089.961.188.524.103.983.202 1.023.22.109.061.193.254.19.454-.005.393-.387 2.046-.519 2.254a.703.703 0 0 1-.212.183c-.155.077-.072.091-1.474-.273l-.604-.157-.185.488a16 16 0 0 1-.954 2.001l-.215.368.786.589c.435.325.808.629.83.676a.594.594 0 0 1-.016.458c-.168.335-1.259 1.69-1.46 1.815a.565.565 0 0 1-.249.074c-.123.001-.199-.05-.706-.476a58.4 58.4 0 0 1-.779-.654l-.21-.181-.277.27a14.41 14.41 0 0 1-1.834 1.489l-.331.227.452.881c.277.533.456.925.456.99.001.145-.114.324-.28.43-.205.132-1.166.617-1.563.79-.389.169-.595.192-.768.084-.087-.054-.167-.192-.401-.714-.157-.359-.343-.765-.405-.911l-.12-.258-.389.129c-.616.203-1.298.37-1.969.479a15.23 15.23 0 0 0-.667.113c-.032.007-.039.091-.024.313.008.167.028.604.041.974.026.774.001.869-.244.998-.13.066-.22.074-1.083.085-.52.006-.996.002-1.058-.006z" style="fill:var(--color2, #8bbc57)"/>
      <path fill="#fc0" d="M.183 11.249c.288-1.722 1.271-1.753 2.12-3.581.478 1.96 1.435 2.184 1.383 3.929-.08 2.676-3.945 2.292-3.503-.348z" style="fill:var(--color1, #fc0)"/>
      <path fill="#fff" d="M2.186 8.673C1.482 9.75.77 10.034.553 11.33c-.195 1.164.656 1.77 1.456 1.712-.612-.17-1.112-.742-.957-1.662.199-1.184.719-1.432 1.134-2.706z" style="fill:var(--color9, #fff)"/>
      <path fill="#fc0" d="M2.927 6.606c.325-1.019.924-.951 1.599-1.986.119 1.232.68 1.452.497 2.507-.282 1.617-2.594 1.043-2.095-.521z" style="fill:var(--color1, #fc0)"/>
      <path fill="#fff" d="M4.367 5.22c-.521.592-.978.701-1.223 1.468-.22.689.244 1.133.735 1.167-.356-.157-.61-.548-.436-1.093.224-.701.561-.805.924-1.542z" style="fill:var(--color9, #fff)"/>
    </symbol>
    <symbol id="icon-our-machine-arrow" viewBox="0 0 13 32">
      <path fill="#fff" d="M3.563 0h9.061v9.066h-1.51V2.454l-29.323 29.448-1.068-1.068L9.982 1.511H3.564V.001z" opacity=".15" style="fill:var(--color9, #fff)"/>
    </symbol>
  </defs>
</svg>
