<svg width="94" height="95" viewBox="0 0 94 95" fill="none" xmlns="http://www.w3.org/2000/svg">
<path d="M36.1151 47.5052L60.6697 5.97253L16.3685 54.9477H40.271L23.3872 94.2318L57.6313 47.5052H36.1151Z" fill="#FFCC00"/>
<path d="M54.9794 39.61L68.8039 0.550476L43.0844 44.0533H65.6214L29.7535 92.9956L79.098 39.61H54.9794Z" fill="#FFCC00"/>
<path d="M32.2369 58.3095H20.295C20.295 61.2252 22.3489 63.6585 25.072 64.2169C24.3537 68.1239 22.2795 72.676 18.9364 75.5965C16.4006 77.8123 13.5596 78.7088 10.4956 78.2614C6.62629 77.6971 3.81944 75.3349 2.59264 71.6098C-0.325203 62.7523 6.66471 51.4942 14.1786 43.9123C20.6504 37.3819 23.6104 31.1116 22.977 25.2742C22.5917 21.7236 20.9466 19.04 19.4039 17.2453C20.7934 15.1087 20.5581 12.2113 18.6968 10.3331L17.4999 11.5409L13.6594 7.66564C13.3921 7.39588 12.9593 7.39588 12.692 7.66564L12.5644 7.79433C12.2976 8.0641 12.2976 8.50079 12.5644 8.77055L16.4049 12.6458L13.2693 15.8098L9.42887 11.9345C9.16153 11.6647 8.72876 11.6647 8.46141 11.9345L8.33388 12.0632C8.06653 12.333 8.06653 12.7697 8.33388 13.0394L12.1743 16.9147L10.9774 18.1224C12.9369 20.0996 16.0127 20.2542 18.1525 18.5968C19.4727 20.1756 20.8516 22.4834 21.176 25.4729C21.7465 30.7314 18.9615 36.5004 12.8974 42.6189C-2.25958 57.9132 -0.137898 69.1173 0.872782 72.1865C2.30662 76.5383 5.71913 79.412 10.2357 80.0711C10.8211 80.1562 11.4017 80.1987 11.978 80.1987C14.9044 80.1987 17.6909 79.103 20.1226 76.9788C23.8463 73.726 26.1382 68.6295 26.8932 64.3035C29.8949 63.9859 32.2369 61.4228 32.2369 58.3095Z" fill="#FFCC00"/>
<path d="M81.8264 77.8007L83.0233 76.593C81.0638 74.6158 77.9886 74.4613 75.8482 76.1186C74.528 74.5399 73.1492 72.2315 72.8247 69.2425C72.2543 63.984 75.0392 58.215 81.1033 52.0965C96.2598 36.8023 94.1386 25.5986 93.1274 22.5289C91.6941 18.1776 88.2811 15.3039 83.7645 14.6443C80.2058 14.1258 76.7874 15.1946 73.8781 17.7366C70.1545 20.99 67.8626 26.0859 67.1075 30.4124C64.1053 30.7301 61.7633 33.2931 61.7633 36.4065H73.7052C73.7052 33.4908 71.6508 31.0575 68.9282 30.4991C69.6465 26.5921 71.7207 22.04 75.0643 19.1189C77.6006 16.9036 80.44 16.0066 83.5052 16.454C87.3744 17.0183 90.1813 19.3805 91.4081 23.1056C94.3259 31.9632 87.3366 43.2212 79.8221 50.8032C73.3503 57.3335 70.3903 63.6038 71.0237 69.4412C71.409 72.9923 73.0542 75.676 74.5974 77.4701C73.2079 79.6067 73.4432 82.5042 75.3044 84.3823L76.5014 83.1745L80.3418 87.0498C80.6092 87.3196 81.042 87.3196 81.3093 87.0498L81.4368 86.9211C81.7042 86.6513 81.7042 86.2146 81.4368 85.9449L77.5964 82.0696L80.7319 78.9057L84.5724 82.7809C84.8397 83.0507 85.2725 83.0507 85.5398 82.7809L85.6674 82.6522C85.9347 82.383 85.9347 81.9458 85.6674 81.676L81.8264 77.8007Z" fill="#FFCC00"/>
</svg>
