<svg width="154" height="91" viewBox="0 0 154 91" fill="none" xmlns="http://www.w3.org/2000/svg">
<path d="M137.301 22.3898C134.788 19.1959 131.808 16.4898 128.501 14.3309L130.123 4.68593L123.838 2.40101L117.553 0.115967L112.601 8.55009C108.68 8.08153 104.658 8.24164 100.681 9.07602L95.0062 1.10851L88.9463 3.93694L82.8863 6.76538L85.3493 16.2318C82.1554 18.7445 79.4494 21.725 77.2904 25.0313L67.6454 23.41L65.3604 29.6949L63.0754 35.9798L71.5096 40.9315C71.041 44.8523 71.2011 48.8748 72.0356 52.852L64.0679 58.5264L66.8964 64.5864L69.7248 70.6463L79.1914 68.1834C81.7041 71.3773 84.6845 74.0834 87.9907 76.2423L86.3694 85.8873L92.6544 88.1722L98.9394 90.4573L103.891 82.023C107.812 82.4916 111.834 82.3315 115.812 81.4971L121.486 89.4647L127.546 86.6363L133.606 83.8078L131.143 74.3413C134.337 71.8286 137.043 68.8481 139.202 65.5418L148.847 67.1631L151.132 60.8781L153.417 54.593L144.982 49.6413C145.451 45.7205 145.291 41.6981 144.456 37.7209L152.424 32.0465L149.595 25.9866L146.767 19.9268L137.301 22.3898ZM118.857 68.0208C106.302 73.8812 91.3721 68.4535 85.5117 55.8977C79.6513 43.3417 85.0791 28.4125 97.635 22.5521C110.191 16.6917 125.12 22.1194 130.981 34.6752C136.841 47.2311 131.413 62.1604 118.857 68.0208Z" fill="#FFCC00"/>
<path d="M58.758 10.784L55.7402 14.7901C55.7402 14.7901 54.7765 16.1868 53.4641 15.4635L52.3243 17.4369C51.9007 18.1704 51.0147 18.5109 50.2159 18.2292C49.8253 18.0916 49.3939 17.8807 48.9669 17.5592C47.6128 16.5391 47.6444 14.9709 47.914 14.378C48.1838 13.7852 50.3499 11.614 50.3499 11.614L51.2067 10.3908L54.8407 5.88739L58.758 10.784Z" fill="#FE9F73"/>
<path d="M53.9791 10.3248C53.965 10.3142 53.9548 10.2983 53.9519 10.2795C53.9457 10.2411 53.9718 10.2048 54.0104 10.1986C54.0242 10.1963 55.3984 9.98706 55.6771 11.0927C55.6867 11.1305 55.6637 11.1688 55.6259 11.1784C55.5881 11.188 55.5496 11.1651 55.5401 11.1272C55.2931 10.1477 54.0843 10.3298 54.033 10.3381C54.0131 10.3411 53.9939 10.3359 53.9791 10.3248Z" fill="#101010"/>
<path d="M56.5598 11.7386C56.544 11.7268 56.5332 11.7083 56.5318 11.687C56.5291 11.6481 56.5585 11.6144 56.5974 11.6117C56.635 11.6091 57.5201 11.5542 57.6404 12.1023C57.6488 12.1404 57.6247 12.1781 57.5867 12.1863C57.5484 12.1948 57.5108 12.1707 57.5025 12.1325C57.4081 11.7031 56.6151 11.752 56.6071 11.7525C56.5895 11.7539 56.5729 11.7485 56.5598 11.7386Z" fill="#101010"/>
<path d="M54.9477 11.4117C54.8772 11.5052 54.7444 11.5239 54.6509 11.4534C54.5574 11.3829 54.5387 11.2501 54.6092 11.1566C54.6796 11.0631 54.8124 11.0444 54.906 11.1149C54.9995 11.1853 55.0182 11.3181 54.9477 11.4117Z" fill="#101010"/>
<path d="M56.8749 12.5991C56.8044 12.6926 56.6716 12.7113 56.5781 12.6408C56.4845 12.5704 56.4659 12.4375 56.5363 12.344C56.6068 12.2505 56.7396 12.2318 56.8331 12.3023C56.9265 12.3728 56.9453 12.5056 56.8749 12.5991Z" fill="#101010"/>
<path d="M54.8301 6.22955L54.7672 8.27855C54.7672 8.27855 56.7918 11.546 59.2505 11.3344C61.7093 11.123 61.7343 10.1506 61.8007 9.16753C61.8335 8.68296 61.3198 7.25909 59.6633 6.8752C58.7591 6.6656 58.9342 5.39044 57.8042 5.24683C56.6743 5.10322 55.1536 5.18303 55.0249 5.57081C54.8964 5.95858 54.8301 6.22955 54.8301 6.22955Z" fill="#101010"/>
<path d="M55.3123 5.70854C55.3123 5.70854 54.0569 4.66456 52.7488 5.64449C51.4406 6.62442 51.4349 7.64948 51.1659 8.03276C50.8968 8.41605 48.7447 10.7454 50.6558 11.89L54.2695 8.0871L54.9022 5.96592L55.3123 5.70854Z" fill="#101010"/>
<path d="M52.5925 10.8075C53.2947 10.7979 53.8562 10.221 53.8466 9.51879C53.8371 8.81662 53.2601 8.25514 52.5579 8.26469C51.8558 8.27424 51.2943 8.85121 51.3038 9.55338C51.3134 10.2555 51.8904 10.817 52.5925 10.8075Z" fill="#FE9F73"/>
<path d="M52.0349 10.1001C51.8239 9.94122 51.8025 9.67643 51.8754 9.48297C51.9618 9.25421 52.1618 9.11945 52.3852 9.13958C52.7154 9.16942 52.8517 9.41262 52.9045 9.55999C52.9474 9.41165 52.942 9.27603 52.8878 9.15547C52.7706 8.89457 52.462 8.78784 52.4589 8.78675C52.4403 8.78056 52.4305 8.76055 52.4367 8.74199C52.4429 8.72355 52.4629 8.71361 52.4813 8.71979C52.4951 8.7244 52.8217 8.83696 52.9519 9.126C53.0271 9.29278 53.0204 9.48308 52.9323 9.69122L52.8828 9.80803L52.8647 9.6825C52.8622 9.66467 52.7975 9.24791 52.3787 9.20994C52.1468 9.18896 51.9981 9.3573 51.9413 9.50783C51.8824 9.66418 51.883 9.8973 52.0769 10.0435C52.0788 10.0449 52.0808 10.0461 52.0827 10.0478C52.0981 10.0595 52.1014 10.0813 52.09 10.097C52.0785 10.1126 52.0564 10.1161 52.0406 10.1046C52.0389 10.103 52.0369 10.1016 52.0349 10.1001Z" fill="#F07162"/>
<path d="M56.416 14.3018C56.416 14.3018 54.7413 17.2928 52.8672 16.032C50.1855 14.2282 51.0442 12.5689 51.7978 11.2498L53.6434 8.74585L54.2692 8.08722C54.2963 8.43048 54.2127 8.77289 54.0309 9.06532C53.6355 9.70126 52.5584 11.4058 52.6536 11.5888C52.788 11.8474 56.2116 13.7383 56.416 14.3018Z" fill="#101010"/>
<path d="M54.6855 13.0063C54.6736 12.9974 54.6683 12.9815 54.6733 12.9667C54.6796 12.9482 54.6996 12.9384 54.718 12.9445L55.4244 13.1836L56.2484 11.718C56.258 11.701 56.2794 11.695 56.2964 11.7046C56.3139 11.7138 56.3195 11.7356 56.3099 11.7526L55.4572 13.2692L54.6952 13.0114C54.6918 13.0103 54.6884 13.0085 54.6855 13.0063Z" fill="#F07162"/>
<path d="M53.9896 13.1347C54.0105 13.145 55.1833 13.9906 55.1833 13.9906C55.1833 13.9906 54.6777 14.3576 54.2409 14.0444C53.8043 13.7313 53.9896 13.1347 53.9896 13.1347Z" fill="#FBFDFC"/>
<path d="M66.588 32.1655C67.307 31.3431 68.4718 29.8249 68.7804 29.163C68.781 29.1623 68.781 29.1623 68.7808 29.161C68.8107 29.0988 68.8319 29.0431 68.8443 28.9971C68.8454 28.9957 68.8464 28.9932 68.8467 28.9912C68.8497 28.9779 68.852 28.9653 68.8539 28.9545C68.8875 28.7484 68.9519 28.5222 69.0389 28.2874C69.2063 27.5153 69.2794 26.6921 69.3865 26.46C69.4856 26.2455 69.9041 25.9957 70.1806 25.8487C70.4109 25.7263 70.5394 25.4601 70.4672 25.2096C70.4253 25.064 70.3202 24.9283 70.0917 24.8665C70.0917 24.8665 70.2939 24.1628 69.6543 24.0786C69.6543 24.0786 69.8851 23.3072 68.8584 23.4257C68.8584 23.4257 68.7848 22.9865 68.2989 22.9721C67.8122 22.957 66.7645 23.3982 66.6158 23.5286C66.4673 23.6602 64.8749 25.8351 64.8749 25.8351C64.8749 25.8351 63.4382 28.8359 63.3244 28.9786L66.588 32.1655Z" fill="#FE9F73"/>
<path d="M66.7385 24.853C66.7536 24.8502 66.7678 24.8421 66.778 24.8289C66.7821 24.8235 67.1888 24.2935 67.3929 24.1483C67.5577 24.0311 68.4387 23.6625 68.8815 23.484C68.9139 23.4709 68.9301 23.4342 68.9174 23.4022C68.9048 23.3701 68.8681 23.3547 68.8359 23.3676C68.783 23.389 67.5391 23.8913 67.3209 24.0464C67.101 24.2027 66.6955 24.7312 66.6782 24.7535C66.657 24.7813 66.662 24.8206 66.6895 24.8415C66.704 24.8524 66.7218 24.856 66.7385 24.853Z" fill="#F07162"/>
<path d="M67.7411 25.5508C67.7567 25.548 67.7713 25.5393 67.7814 25.5256C67.7846 25.5213 68.0981 25.0939 68.3441 24.8912C68.591 24.6878 69.6718 24.1413 69.6827 24.1357C69.7139 24.1199 69.7267 24.0821 69.7114 24.0511C69.696 24.0202 69.6584 24.0081 69.6271 24.0237C69.5821 24.0464 68.5226 24.5823 68.2648 24.7948C68.0062 25.0078 67.6932 25.4345 67.6801 25.4525C67.6595 25.4807 67.6654 25.5199 67.6935 25.54C67.7075 25.5506 67.7249 25.5538 67.7411 25.5508Z" fill="#F07162"/>
<path d="M68.4332 26.1274C68.4496 26.1243 68.4649 26.115 68.4749 26.1C68.4769 26.097 68.6756 25.8029 68.9192 25.5887C69.1627 25.3747 70.1083 24.9278 70.1177 24.9233C70.1494 24.9084 70.1632 24.8709 70.1489 24.8396C70.1344 24.8083 70.0969 24.795 70.0655 24.8099C70.0259 24.8286 69.0939 25.2691 68.8369 25.4951C68.5804 25.7206 68.3791 26.0187 68.3708 26.0312C68.3512 26.0603 68.3589 26.0991 68.3876 26.1182C68.4014 26.1274 68.4178 26.1302 68.4332 26.1274Z" fill="#F07162"/>
<path d="M6.4182 85.0235L9.99369 81.1552C9.99369 81.1552 6.73684 80.1903 6.60791 80.2226C6.47885 80.2549 3.69505 81.1846 3.69505 81.1846C3.69505 81.1846 2.93187 82.5443 2.96414 83.0924C2.9964 83.6406 3.28666 84.9305 3.86704 85.2851C4.44743 85.6398 4.54422 85.8978 5.0602 85.7043C5.57606 85.511 6.4182 85.0235 6.4182 85.0235Z" fill="#FE9F73"/>
<path d="M37.0474 89.016L32.3731 89.0322L32.3579 87.7292L34.1961 82.8962L39.6241 83.507L37.0474 89.016Z" fill="#FE9F73"/>
<path d="M32.3167 89.3973H37.4153L39.4825 87.1456L43.2634 89.3973H44.0778C44.3583 89.3973 44.6156 89.5871 44.6685 89.8627C44.7397 90.2335 44.4573 90.5579 44.0992 90.5579H32.244C32.1569 90.5579 32.0862 90.4873 32.0862 90.4002V89.6279C32.0862 89.5005 32.1895 89.3973 32.3167 89.3973Z" fill="#101010"/>
<path d="M32.3615 89.4037V87.3108C32.3615 87.3108 33.2201 86.155 34.5276 86.7449C34.5276 86.7449 36.505 88.1478 38.2482 86.4502L42.5771 88.3704C42.5771 88.3704 43.7641 88.7671 44.0854 89.4038L32.3615 89.4037Z" fill="#3D3D3D"/>
<path d="M32.4051 87.3108H32.3183V89.3934H32.4051V87.3108Z" fill="#101010"/>
<path d="M36.2999 87.3346C36.4656 87.3346 36.5655 87.3204 36.5687 87.3199L36.5559 87.2342C36.5458 87.2355 35.5239 87.3789 34.5522 86.7102L34.5031 86.7818C35.1992 87.2608 35.9213 87.3346 36.2999 87.3346Z" fill="#101010"/>
<path d="M32.9223 88.5715L32.8738 88.6436L33.4271 89.0159L33.4756 88.9438L32.9223 88.5715Z" fill="#101010"/>
<path d="M33.3111 88.4495L33.2626 88.5214L33.8155 88.8942L33.864 88.8223L33.3111 88.4495Z" fill="#101010"/>
<path d="M44.5011 90.4545C44.6411 90.3358 44.7214 90.1624 44.7214 89.9789C44.7214 89.635 44.4416 89.3553 44.0977 89.3553H32.3757C32.1913 89.3553 32.0414 89.5054 32.0414 89.6898V90.2683H32.1283V89.6898C32.1283 89.5532 32.2393 89.4422 32.3758 89.4422H44.0978C44.3939 89.4422 44.6347 89.683 44.6347 89.979C44.6347 90.137 44.5656 90.2863 44.4451 90.3885L44.5011 90.4545Z" fill="#101010"/>
<path d="M44.0601 89.4198L44.1386 89.3828C44.1289 89.3622 43.8914 88.8756 43.0054 88.4977C42.1346 88.1265 38.3049 86.4277 38.2663 86.4106L38.231 86.49C38.2697 86.5071 42.1 88.206 42.9713 88.5775C43.8239 88.9413 44.058 89.4151 44.0601 89.4198Z" fill="#101010"/>
<path d="M31.421 51.37C31.421 51.37 39.5663 58.4828 46.338 60.2886L33.2325 83.127C33.2325 83.127 35.963 86.0519 40.4987 86.0519C40.4987 86.0519 58.4212 59.9313 58.4273 56.8766C58.4317 54.6895 42.9379 44.4598 42.9379 44.4598L31.421 47.7869V51.37Z" fill="#3D3D3D"/>
<path d="M2.82043 80.2902L28.4137 37.0377L35.984 36.5615L42.9378 44.4597C42.9378 44.4597 39.9946 48.6825 35.2598 53.0334C30.525 57.3844 25.0226 61.2872 19.2001 70.245C13.3777 79.2026 9.79456 84.4493 9.79456 84.4493C9.79456 84.4493 5.63565 82.7855 2.82043 80.2902Z" fill="#3D3D3D"/>
<path d="M8.69688 89.7137H3.85267L1.02568 82.2489C0.884377 81.8756 1.13085 81.4687 1.52711 81.4213L3.74326 81.1555C3.74326 81.1555 3.97457 84.3053 6.41814 85.0237L6.00647 87.5182C7.1721 87.9619 7.46964 87.8765 8.69676 88.5249C9.37964 88.8858 8.69688 89.7137 8.69688 89.7137Z" fill="#3D3D3D"/>
<path d="M43.6571 44.9926C43.6571 44.9926 44.8887 37.6114 45.9765 36.3318C47.0642 35.0521 48.0861 34.2033 48.0861 34.2033C49.6889 37.7357 52.5052 42.7307 53.367 43.1804C54.8386 43.9481 58.4857 41.7087 61.3649 38.5096C64.2442 35.3105 67.4433 31.9194 67.4433 31.9194L63.8603 27.5686L58.8093 32.0404L56.1184 34.4147C56.1184 34.4147 52.4073 19.5067 51.4476 16.1795C50.488 12.8523 47.9286 13.3002 47.9286 13.3002C44.2175 13.9401 28.4137 37.0379 28.4137 37.0379C28.4137 37.0379 32.5215 38.2736 33.9163 38.8935C37.9471 40.6849 38.2341 44.7574 43.6571 44.9926Z" fill="#8BBC57"/>
<path d="M53.9657 43.3772C53.7053 43.3772 53.4928 43.331 53.3325 43.2444C52.562 42.8281 50.7124 39.4882 50.634 39.3462C46.6835 33.1487 45.9366 25.2752 45.9295 25.1963L46.0741 25.1833C46.0812 25.2618 46.8254 33.1013 50.7588 39.2722C50.7802 39.3104 52.6683 42.7204 53.4017 43.1168C54.1126 43.5002 56.0948 42.9671 58.7649 40.8862C61.3986 38.8336 65.5763 33.8148 65.6182 33.7644L65.7299 33.857C65.688 33.9076 61.5003 38.9384 58.8542 41.0007C56.6821 42.6935 54.9687 43.3772 53.9657 43.3772Z" fill="#101010"/>
<path d="M55.5735 36.5818L55.4341 36.5417L56.0435 34.4133L53.3738 23.8086L53.5145 23.7732L56.1936 34.416L55.5735 36.5818Z" fill="#101010"/>
<path d="M63.8178 27.5185L56.0699 34.358L56.1659 34.4668L63.9138 27.6273L63.8178 27.5185Z" fill="#101010"/>
<path d="M43.3848 45.0728C41.3077 45.0728 39.1271 43.7674 36.8979 41.188C34.8757 38.8481 31.4396 38.0655 31.4052 38.0577L31.4365 37.9161C31.4714 37.9238 34.9535 38.7161 37.0077 41.093C39.2844 43.7276 41.5044 45.0166 43.5967 44.9229C43.7126 44.3279 44.7227 39.1846 45.4022 37.2791L45.5389 37.3278C44.8245 39.3311 43.7392 44.9497 43.7283 45.0063L43.7177 45.0618L43.6611 45.065C43.5694 45.0702 43.477 45.0728 43.3848 45.0728Z" fill="#101010"/>
<path d="M0.978927 82.0307L3.67831 89.2525C3.78335 89.5296 4.04874 89.713 4.34518 89.713H8.52968C8.64867 89.713 8.7605 89.7751 8.81787 89.8793C8.84601 89.9305 8.87269 89.9918 8.88919 90.0604C8.94353 90.2851 8.7964 90.4697 8.56534 90.4697H3.90901C3.55969 90.4697 3.24845 90.249 3.13273 89.9195L0.458337 82.1701C0.419766 82.0582 0.450818 81.9273 0.548459 81.8606C0.589092 81.8329 0.641852 81.8148 0.709655 81.8188C0.832647 81.8259 0.935382 81.9157 0.978927 82.0307Z" fill="#101010"/>
<path d="M8.5654 90.5058V90.4332C8.66632 90.4332 8.75207 90.3952 8.80653 90.3259C8.86063 90.2571 8.87749 90.1659 8.85396 90.0689C8.84001 90.0113 8.81721 89.9534 8.78603 89.8968C8.73594 89.8058 8.63769 89.7493 8.52974 89.7493H4.34525C4.03558 89.7493 3.75394 89.5548 3.64441 89.2654L0.944911 82.0434C0.903914 81.935 0.810758 81.8608 0.707659 81.8549C0.654775 81.8505 0.60808 81.8638 0.569023 81.8903C0.488606 81.9453 0.457191 82.0554 0.492608 82.158L0.424077 82.1818C0.377986 82.0484 0.42068 81.9038 0.528025 81.8305C0.580666 81.7944 0.642649 81.7793 0.711786 81.7824C0.843389 81.7901 0.961527 81.8826 1.01271 82.0178L3.71222 89.2398C3.81107 89.5011 4.06542 89.6767 4.34512 89.6767H8.52962C8.66413 89.6767 8.78664 89.7477 8.84959 89.862C8.88367 89.9242 8.90903 89.9881 8.92443 90.052C8.95318 90.171 8.93159 90.2843 8.86342 90.3709C8.79501 90.4577 8.68912 90.5058 8.5654 90.5058Z" fill="#101010"/>
<path d="M3.35 81.8935L3.74578 81.1842L4.01602 81.4971L4.21154 81.9559L4.33247 82.1977L4.42721 82.633L4.53407 83.1933L4.52194 83.4855L4.15915 83.693C4.15915 83.693 4.02815 83.3604 4.02002 83.3524C4.01202 83.3446 3.35 81.8935 3.35 81.8935Z" fill="#101010"/>
<path d="M4.53413 83.4072L4.64208 84.0487C4.64208 84.0487 4.82706 84.4836 5.03992 84.6125L5.32109 84.7748L5.84277 84.9513L6.32964 85.0122L6.3511 84.7556L4.53413 83.4072Z" fill="#FE9F73"/>
<path d="M8.87368 88.7143C8.39008 88.1829 6.0211 87.5593 5.99733 87.5531L6.01565 87.4828C6.11401 87.5086 8.42938 88.1182 8.92741 88.6655L8.87368 88.7143Z" fill="#101010"/>
<path d="M5.26397 88.0989L5.22152 88.0399L5.97318 87.4976L6.37636 85.0548L6.33984 85.0501C5.60626 84.9542 4.60171 84.8232 4.50407 83.5535C4.35828 81.6582 3.72877 81.1898 3.72246 81.1852L3.76418 81.1257C3.79123 81.1448 4.42754 81.6118 4.57636 83.5478C4.66952 84.7588 5.60081 84.8805 6.34919 84.9781L6.46017 84.9927L6.04001 87.539L5.26397 88.0989Z" fill="#101010"/>
</svg>
