<svg width="160" height="107" viewBox="0 0 160 107" fill="none" xmlns="http://www.w3.org/2000/svg">
<path d="M22.7753 6.02771C14.3976 6.02771 7.60951 12.8158 7.60951 21.1935C7.60951 29.5675 14.3976 36.3593 22.7753 36.3593C31.1493 36.3593 37.9411 29.5675 37.9411 21.1935C37.9411 12.8158 31.1493 6.02771 22.7753 6.02771ZM22.7753 28.2742C18.8628 28.2742 15.6909 25.1059 15.6909 21.1935C15.6909 17.281 18.8628 14.1091 22.7753 14.1091C26.6877 14.1091 29.8596 17.281 29.8596 21.1935C29.8596 25.1059 26.6877 28.2742 22.7753 28.2742Z" fill="#8BBC57"/>
<path d="M25.6909 6.65621H19.859L20.1812 2.52808H25.3686L25.6909 6.65621Z" fill="#8BBC57"/>
<path d="M14.5903 8.62097L10.4661 12.7448L7.77511 9.59746L11.443 5.92957L14.5903 8.62097Z" fill="#8BBC57"/>
<path d="M8.13027 17.8597V23.6919L4.00213 23.3696V18.1823L8.13027 17.8597Z" fill="#8BBC57"/>
<path d="M10.0953 28.9604L14.2195 33.0842L11.0722 35.7756L7.4043 32.1077L10.0953 28.9604Z" fill="#8BBC57"/>
<path d="M19.3342 35.4203H25.1664L24.8438 39.5489H19.6568L19.3342 35.4203Z" fill="#8BBC57"/>
<path d="M30.4349 33.4555L34.5587 29.3317L37.2501 32.479L33.5818 36.1469L30.4349 33.4555Z" fill="#8BBC57"/>
<path d="M36.8946 24.217V18.3848L41.0231 18.707V23.8944L36.8946 24.217Z" fill="#8BBC57"/>
<path d="M34.9297 13.116L30.8059 8.99224L33.9529 6.30084L37.6211 9.96873L34.9297 13.116Z" fill="#8BBC57"/>
<path d="M47.8251 51.7876C37.8146 51.7876 29.6753 59.9305 29.6753 69.9374C29.6753 79.9444 37.8146 88.0836 47.8251 88.0836C57.8249 88.0836 65.9641 79.9444 65.9641 69.9374C65.9641 59.9305 57.8249 51.7876 47.8251 51.7876ZM47.8251 84.2217C39.9243 84.2217 33.5336 77.8274 33.5336 69.9374C33.5336 62.0439 39.9243 55.6495 47.8251 55.6495C55.7115 55.6495 62.1022 62.0439 62.1022 69.9374C62.1022 77.8274 55.7115 84.2217 47.8251 84.2217ZM47.8251 51.7876C37.8146 51.7876 29.6753 59.9305 29.6753 69.9374C29.6753 79.9444 37.8146 88.0836 47.8251 88.0836C57.8249 88.0836 65.9641 79.9444 65.9641 69.9374C65.9641 59.9305 57.8249 51.7876 47.8251 51.7876ZM47.8251 84.2217C39.9243 84.2217 33.5336 77.8274 33.5336 69.9374C33.5336 62.0439 39.9243 55.6495 47.8251 55.6495C55.7115 55.6495 62.1022 62.0439 62.1022 69.9374C62.1022 77.8274 55.7115 84.2217 47.8251 84.2217ZM47.8251 39.3422C30.9253 39.3422 17.2299 53.0412 17.2299 69.9374C17.2299 86.83 30.9253 100.525 47.8251 100.525C64.7105 100.525 78.4095 86.83 78.4095 69.9374C78.4095 53.0412 64.7105 39.3422 47.8251 39.3422ZM47.8251 89.8249C36.8572 89.8249 27.9304 80.9053 27.9304 69.9374C27.9304 58.9731 36.8572 50.0463 47.8251 50.0463C58.7858 50.0463 67.7054 58.9731 67.7054 69.9374C67.7054 80.9053 58.7858 89.8249 47.8251 89.8249ZM47.8251 51.7876C37.8146 51.7876 29.6753 59.9305 29.6753 69.9374C29.6753 79.9444 37.8146 88.0836 47.8251 88.0836C57.8249 88.0836 65.9641 79.9444 65.9641 69.9374C65.9641 59.9305 57.8249 51.7876 47.8251 51.7876ZM47.8251 84.2217C39.9243 84.2217 33.5336 77.8274 33.5336 69.9374C33.5336 62.0439 39.9243 55.6495 47.8251 55.6495C55.7115 55.6495 62.1022 62.0439 62.1022 69.9374C62.1022 77.8274 55.7115 84.2217 47.8251 84.2217Z" fill="#FFCC00"/>
<path d="M51.411 39.8979H44.4068L45.1044 32.9067H50.7137L51.411 39.8979Z" fill="#FFCC00"/>
<path d="M35.9111 42.1261L29.8452 45.6282L26.9533 39.2248L31.8115 36.42L35.9111 42.1261Z" fill="#FFCC00"/>
<path d="M23.6013 51.8063L20.0992 57.8719L14.3931 53.7723L17.1979 48.9144L23.6013 51.8063Z" fill="#FFCC00"/>
<path d="M17.7808 66.3434V73.3475L10.7893 72.6503V67.0406L17.7808 66.3434Z" fill="#FFCC00"/>
<path d="M20.0085 81.8439L23.5106 87.9098L17.1072 90.8014L14.3028 85.9435L20.0085 81.8439Z" fill="#FFCC00"/>
<path d="M29.6882 94.1533L35.7541 97.6553L31.6545 103.361L26.7966 100.557L29.6882 94.1533Z" fill="#FFCC00"/>
<path d="M44.2261 99.9734H51.2303L50.5327 106.965H44.9234L44.2261 99.9734Z" fill="#FFCC00"/>
<path d="M59.7261 97.7454L65.7921 94.2433L68.684 100.647L63.8257 103.452L59.7261 97.7454Z" fill="#FFCC00"/>
<path d="M72.0358 88.066L75.5378 82L81.244 86.0996L78.4391 90.9575L72.0358 88.066Z" fill="#FFCC00"/>
<path d="M77.8565 73.5287V66.5245L84.848 67.2218V72.8311L77.8565 73.5287Z" fill="#FFCC00"/>
<path d="M75.6284 58.028L72.1264 51.962L78.5297 49.0705L81.3342 53.9284L75.6284 58.028Z" fill="#FFCC00"/>
<path d="M65.9489 45.7189L59.883 42.2168L63.9826 36.511L68.8405 39.3155L65.9489 45.7189Z" fill="#FFCC00"/>
<path d="M148.382 34.1513C148.028 30.3436 144.661 27.5474 140.857 27.9015C137.049 28.2555 134.25 31.6225 134.604 35.4338C134.958 39.2379 138.328 42.0376 142.136 41.6836C145.94 41.3296 148.736 37.9554 148.382 34.1513ZM142.06 40.8419C138.715 41.1525 135.756 38.696 135.445 35.3543C135.135 32.009 137.591 29.0503 140.933 28.7396C144.275 28.4289 147.233 30.8855 147.544 34.2308C147.855 37.5724 145.398 40.5312 142.06 40.8419ZM148.382 34.1513C148.028 30.3436 144.661 27.5474 140.857 27.9015C137.049 28.2555 134.25 31.6225 134.604 35.4338C134.958 39.2379 138.328 42.0376 142.136 41.6836C145.94 41.3296 148.736 37.9554 148.382 34.1513ZM142.06 40.8419C138.715 41.1525 135.756 38.696 135.445 35.3543C135.135 32.009 137.591 29.0503 140.933 28.7396C144.275 28.4289 147.233 30.8855 147.544 34.2308C147.855 37.5724 145.398 40.5312 142.06 40.8419ZM148.382 34.1513C148.028 30.3436 144.661 27.5474 140.857 27.9015C137.049 28.2555 134.25 31.6225 134.604 35.4338C134.958 39.2379 138.328 42.0376 142.136 41.6836C145.94 41.3296 148.736 37.9554 148.382 34.1513ZM142.06 40.8419C138.715 41.1525 135.756 38.696 135.445 35.3543C135.135 32.009 137.591 29.0503 140.933 28.7396C144.275 28.4289 147.233 30.8855 147.544 34.2308C147.855 37.5724 145.398 40.5312 142.06 40.8419ZM156.016 33.4432C155.272 25.4232 148.162 19.5238 140.146 20.268C132.122 21.0122 126.226 28.1218 126.97 36.1418C127.718 44.1582 134.821 50.0613 142.848 49.3171C150.864 48.5729 156.764 41.4596 156.016 33.4432ZM142.237 42.7529C137.848 43.1612 133.943 39.9243 133.534 35.5313C133.126 31.1384 136.367 27.2367 140.756 26.8285C145.145 26.4203 149.047 29.6608 149.455 34.0537C149.863 38.4431 146.623 42.3447 142.237 42.7529ZM140.857 27.9015C137.049 28.2555 134.25 31.6225 134.604 35.4338C134.958 39.2379 138.328 42.0376 142.136 41.6836C145.94 41.3296 148.736 37.9554 148.382 34.1513C148.028 30.3436 144.661 27.5474 140.857 27.9015ZM142.06 40.8419C138.715 41.1525 135.756 38.696 135.445 35.3543C135.135 32.009 137.591 29.0503 140.933 28.7396C144.275 28.4289 147.233 30.8855 147.544 34.2308C147.855 37.5724 145.398 40.5312 142.06 40.8419ZM148.382 34.1513C148.028 30.3436 144.661 27.5474 140.857 27.9015C137.049 28.2555 134.25 31.6225 134.604 35.4338C134.958 39.2379 138.328 42.0376 142.136 41.6836C145.94 41.3296 148.736 37.9554 148.382 34.1513ZM142.06 40.8419C138.715 41.1525 135.756 38.696 135.445 35.3543C135.135 32.009 137.591 29.0503 140.933 28.7396C144.275 28.4289 147.233 30.8855 147.544 34.2308C147.855 37.5724 145.398 40.5312 142.06 40.8419ZM148.382 34.1513C148.028 30.3436 144.661 27.5474 140.857 27.9015C137.049 28.2555 134.25 31.6225 134.604 35.4338C134.958 39.2379 138.328 42.0376 142.136 41.6836C145.94 41.3296 148.736 37.9554 148.382 34.1513ZM142.06 40.8419C138.715 41.1525 135.756 38.696 135.445 35.3543C135.135 32.009 137.591 29.0503 140.933 28.7396C144.275 28.4289 147.233 30.8855 147.544 34.2308C147.855 37.5724 145.398 40.5312 142.06 40.8419Z" fill="#FFCC00"/>
<path d="M142.992 20.6115L137.408 21.1307L137.35 17.1488L142.317 16.6871L142.992 20.6115Z" fill="#FFCC00"/>
<path d="M132.538 23.4805L128.956 27.7965L126.099 25.0224L129.285 21.1836L132.538 23.4805Z" fill="#FFCC00"/>
<path d="M127.175 32.9019L127.693 38.4866L123.712 38.5451L123.25 33.5781L127.175 32.9019Z" fill="#FFCC00"/>
<path d="M130.044 43.3568L134.359 46.9387L131.585 49.7955L127.747 46.6099L130.044 43.3568Z" fill="#FFCC00"/>
<path d="M139.465 48.7206L145.05 48.2018L145.108 52.1836L140.141 52.6449L139.465 48.7206Z" fill="#FFCC00"/>
<path d="M149.92 45.8512L153.502 41.5352L156.359 44.3093L153.173 48.1481L149.92 45.8512Z" fill="#FFCC00"/>
<path d="M155.283 36.4297L154.764 30.8453L158.746 30.7864L159.208 35.7538L155.283 36.4297Z" fill="#FFCC00"/>
<path d="M152.414 25.9754L148.098 22.3935L150.872 19.5366L154.711 22.7222L152.414 25.9754Z" fill="#FFCC00"/>
<path d="M103.695 24.1182C92.9687 24.1182 84.2735 32.8134 84.2735 43.54C84.2735 54.2626 92.9687 62.9578 103.695 62.9578C114.418 62.9578 123.113 54.2626 123.113 43.54C123.113 32.8134 114.418 24.1182 103.695 24.1182ZM103.695 52.6069C98.6828 52.6069 94.6244 48.5485 94.6244 43.54C94.6244 38.5275 98.6828 34.469 103.695 34.469C108.703 34.469 112.762 38.5275 112.762 43.54C112.762 48.5481 108.703 52.6069 103.695 52.6069Z" fill="#8BBC57"/>
<path d="M107.427 24.9251H99.9594L100.372 19.6392H107.014L107.427 24.9251Z" fill="#8BBC57"/>
<path d="M93.2137 27.4412L87.9332 32.7218L84.4875 28.6919L89.1839 23.9955L93.2137 27.4412Z" fill="#8BBC57"/>
<path d="M84.9423 39.2704V46.7381L79.6563 46.3252V39.6834L84.9423 39.2704Z" fill="#8BBC57"/>
<path d="M87.4581 53.4844L92.7387 58.7649L88.7088 62.2107L84.0124 57.5143L87.4581 53.4844Z" fill="#8BBC57"/>
<path d="M99.2876 61.7559H106.755L106.342 67.0419H99.7005L99.2876 61.7559Z" fill="#8BBC57"/>
<path d="M113.501 59.24L118.782 53.9595L122.227 57.9893L117.531 62.6858L113.501 59.24Z" fill="#8BBC57"/>
<path d="M121.773 47.4103V39.9427L127.059 40.3556V46.9974L121.773 47.4103Z" fill="#8BBC57"/>
<path d="M119.257 33.1965L113.976 27.9163L118.006 24.4706L122.702 29.167L119.257 33.1965Z" fill="#8BBC57"/>
<path d="M8.86238 5.31769L8.65104 5.02434C9.02856 4.75231 9.25435 4.61937 9.2641 4.61359L9.4469 4.92499C9.44473 4.9268 9.22436 5.05686 8.86238 5.31769Z" fill="#3D3D3D"/>
<path d="M103.528 67.7398C103.039 67.7351 102.55 67.7188 102.075 67.6914L102.096 67.3308C102.565 67.3579 103.048 67.3742 103.531 67.3785L103.528 67.7398ZM104.98 67.713L104.962 67.3521C105.445 67.3287 105.923 67.2886 106.384 67.2337L106.427 67.5924C105.957 67.648 105.471 67.6888 104.98 67.713ZM100.629 67.5685C100.145 67.5144 99.6612 67.4457 99.1908 67.3652L99.2523 67.0093C99.715 67.0888 100.192 67.156 100.669 67.2094L100.629 67.5685ZM107.86 67.3652L107.789 67.0111C108.261 66.9168 108.725 66.803 109.169 66.6722L109.271 67.0191C108.817 67.152 108.342 67.2687 107.86 67.3652ZM97.7682 67.0747C97.2942 66.9616 96.8228 66.833 96.3669 66.6914L96.4741 66.3464C96.9221 66.4855 97.3856 66.6119 97.852 66.7232L97.7682 67.0747ZM110.645 66.5444L110.51 66.2091C110.951 66.0321 111.384 65.8323 111.798 65.6148L111.966 65.9346C111.542 66.1578 111.097 66.363 110.645 66.5444ZM94.9951 66.212C94.5454 66.0368 94.0963 65.8428 93.6606 65.6351L93.816 65.3092C94.2437 65.513 94.6848 65.7037 95.1266 65.8757L94.9951 66.212ZM113.217 65.19L113.016 64.8898C113.407 64.6279 113.79 64.3414 114.154 64.039L114.385 64.3168C114.012 64.6275 113.619 64.9212 113.217 65.19ZM92.3713 64.9624C91.9533 64.7243 91.5371 64.4671 91.1343 64.1983L91.3348 63.8978C91.7308 64.1618 92.1397 64.4147 92.5498 64.6485L92.3713 64.9624ZM89.9537 63.3501C89.5758 63.0593 89.198 62.7486 88.8309 62.4267L89.0686 62.155C89.4306 62.4719 89.8024 62.7775 90.1741 63.064L89.9537 63.3501ZM115.457 63.3306L115.201 63.077C115.526 62.7471 115.846 62.3909 116.153 62.0181L116.432 62.2479C116.118 62.629 115.79 62.9932 115.457 63.3306ZM87.7663 61.4397C87.4296 61.1095 87.0893 60.758 86.7547 60.3957L87.0199 60.1504C87.3505 60.5088 87.6868 60.8556 88.0195 61.1818L87.7663 61.4397ZM117.311 61.0861L117.014 60.8798C117.28 60.4986 117.541 60.094 117.789 59.6775L118.1 59.8628C117.847 60.2866 117.581 60.6981 117.311 61.0861ZM85.7913 59.3043C85.4918 58.9506 85.1833 58.572 84.8747 58.1793L85.1583 57.9561C85.4647 58.3452 85.7703 58.7201 86.0673 59.0706L85.7913 59.3043ZM118.807 58.5915L118.487 58.425C118.699 58.0161 118.91 57.5818 119.114 57.1339L119.443 57.2838C119.236 57.7372 119.022 58.1772 118.807 58.5915ZM83.9954 57.0262C83.7086 56.6393 83.4261 56.2473 83.1461 55.8514L83.4409 55.6429C83.7194 56.0367 84.0005 56.4265 84.2852 56.8112L83.9954 57.0262ZM120.018 55.9489L119.683 55.8127C119.858 55.3835 120.032 54.9316 120.2 54.4695L120.54 54.5935C120.369 55.0598 120.194 55.5158 120.018 55.9489ZM82.3203 54.6614C82.0489 54.264 81.7794 53.8637 81.5107 53.4616L81.8112 53.2608C82.0793 53.6621 82.3481 54.0613 82.6187 54.458L82.3203 54.6614ZM121.017 53.2228L120.674 53.109C120.825 52.6567 120.971 52.1987 121.114 51.7348L121.459 51.841C121.315 52.307 121.169 52.768 121.017 53.2228ZM80.7101 52.2568L79.9096 51.048L80.2108 50.8483L81.0114 52.0574L80.7101 52.2568ZM121.871 50.4501L121.524 50.3508C121.655 49.8913 121.784 49.4271 121.911 48.9596L122.26 49.0542C122.133 49.5235 122.003 49.9892 121.871 50.4501ZM79.105 49.8447C78.8359 49.4455 78.5646 49.047 78.29 48.6503L78.587 48.4448C78.8623 48.8429 79.1347 49.2424 79.4045 49.6427L79.105 49.8447ZM122.631 47.6533L122.281 47.5626C122.401 47.0984 122.52 46.6312 122.639 46.1616L122.989 46.2498C122.87 46.7205 122.751 47.1883 122.631 47.6533ZM77.4584 47.4701C77.1777 47.0796 76.8934 46.6919 76.6037 46.3083L76.8919 46.0904C77.1835 46.4766 77.4696 46.8664 77.7517 47.2591L77.4584 47.4701ZM75.7196 45.1699C75.414 44.7877 75.1048 44.4145 74.8013 44.0605L75.0755 43.8253C75.3819 44.1823 75.6933 44.5587 76.0018 44.9442L75.7196 45.1699ZM123.339 44.8452L122.988 44.7585L123.335 43.3539L123.686 43.4406L123.339 44.8452ZM73.8436 42.9854C73.5131 42.6292 73.1764 42.2813 72.8426 41.9518L73.0962 41.6946C73.4339 42.0281 73.7746 42.3796 74.1088 42.7401L73.8436 42.9854ZM124.033 42.0396L123.682 41.9522C123.799 41.4847 123.916 41.0169 124.036 40.549L124.386 40.6383C124.266 41.1054 124.149 41.5729 124.033 42.0396ZM19.6377 41.1668C19.1547 41.1581 18.6648 41.1318 18.1822 41.0881L18.2147 40.7282C18.689 40.7712 19.1699 40.7969 19.6442 40.8055L19.6377 41.1668ZM21.0958 41.1397L21.0759 40.7792C21.5517 40.7528 22.0311 40.7087 22.5014 40.6477L22.548 41.006C22.069 41.0682 21.5806 41.1133 21.0958 41.1397ZM71.7971 40.9685C71.4383 40.6473 71.0709 40.3348 70.7046 40.04L70.9311 39.7586C71.3025 40.0574 71.6749 40.3742 72.038 40.6993L71.7971 40.9685ZM16.7357 40.9052C16.2574 40.8272 15.7765 40.7311 15.3062 40.6199L15.3893 40.2683C15.851 40.3778 16.3235 40.4721 16.7935 40.5487L16.7357 40.9052ZM23.9862 40.7644L23.9129 40.4103C24.3793 40.3135 24.8467 40.1983 25.3023 40.0668L25.4024 40.4139C24.9381 40.548 24.4616 40.6657 23.9862 40.7644ZM13.9005 40.2333C13.4363 40.0874 12.9742 39.9241 12.5259 39.7474L12.6585 39.4111C13.0985 39.5845 13.5526 39.7452 14.0085 39.8883L13.9005 40.2333ZM26.7889 39.9931L26.6823 39.6481C27.1447 39.505 27.6039 39.3609 28.0602 39.2164L28.1696 39.5606C27.7123 39.7059 27.252 39.85 26.7889 39.9931ZM124.748 39.2373L124.399 39.1452C124.522 38.677 124.648 38.2092 124.776 37.7424L125.125 37.8385C124.996 38.3038 124.871 38.7702 124.748 39.2373ZM69.5637 39.1726C69.1761 38.8945 68.7766 38.625 68.3763 38.3717L68.5695 38.0665C68.976 38.3237 69.3813 38.5968 69.7744 38.8793L69.5637 39.1726ZM11.19 39.164C10.7518 38.9534 10.3175 38.725 9.89953 38.4852L10.0794 38.1719C10.4902 38.4075 10.9161 38.6318 11.3464 38.8385L11.19 39.164ZM29.5464 39.1203L29.4355 38.7763C29.8965 38.6279 30.3542 38.479 30.8097 38.3305L30.9214 38.6741C30.4662 38.8222 30.0077 38.9714 29.5464 39.1203ZM32.296 38.2258L32.184 37.8822L33.5586 37.4353L33.6702 37.7789L32.296 38.2258ZM8.66257 37.7128C8.26013 37.44 7.86491 37.1492 7.48739 36.8486L7.71245 36.5661C8.08275 36.8609 8.47074 37.146 8.86524 37.414L8.66257 37.7128ZM67.1451 37.6416C66.7293 37.4118 66.3012 37.1911 65.8724 36.9863L66.0284 36.6604C66.4634 36.8685 66.898 37.0921 67.3199 37.3255L67.1451 37.6416ZM35.0452 37.3367L34.9353 36.9924C35.397 36.8454 35.8569 36.7005 36.3154 36.5582L36.4223 36.9032C35.9649 37.0452 35.5058 37.19 35.0452 37.3367ZM37.8034 36.4827L37.7001 36.1366C38.1647 35.9979 38.6278 35.8628 39.0902 35.732L39.1885 36.0795C38.7279 36.2099 38.2662 36.3447 37.8034 36.4827ZM125.518 36.4494L125.171 36.3487C125.306 35.8837 125.445 35.4209 125.588 34.9603L125.933 35.0673C125.791 35.5257 125.653 35.9867 125.518 36.4494ZM64.5632 36.4065C64.1665 36.2443 63.7579 36.0896 63.3486 35.9466L63.2218 35.9025L63.3399 35.5611L63.4346 35.594C63.8825 35.7508 64.2973 35.9076 64.6993 36.0719L64.5632 36.4065ZM6.38193 35.8964C6.02645 35.5651 5.68108 35.2165 5.3545 34.8599L5.62111 34.616C5.94083 34.9654 6.27969 35.3075 6.62795 35.6323L6.38193 35.8964ZM40.5797 35.6977L40.4872 35.3483C40.9561 35.224 41.424 35.1048 41.8922 34.991L41.9774 35.3422C41.5121 35.4553 41.0461 35.5741 40.5797 35.6977ZM61.854 35.4589C61.3934 35.3191 60.9278 35.1879 60.4701 35.0694L60.5607 34.7197C61.0231 34.8397 61.4935 34.9719 61.9588 35.1131L61.854 35.4589ZM43.3824 35.0181L43.3054 34.6648C43.779 34.5615 44.2526 34.465 44.7266 34.3754L44.7938 34.7306C44.3227 34.8191 43.8527 34.9155 43.3824 35.0181ZM59.0709 34.7374C58.6045 34.637 58.1298 34.5452 57.6598 34.465L57.7205 34.1092C58.1955 34.1901 58.6757 34.2826 59.1471 34.3845L59.0709 34.7374ZM46.2121 34.4835L46.1558 34.1269C46.6402 34.0503 47.124 33.9824 47.5925 33.9246L47.6366 34.283C47.172 34.3404 46.6926 34.4076 46.2121 34.4835ZM56.2382 34.2544C55.7632 34.1948 55.2823 34.145 54.8087 34.1067L54.838 33.7465C55.3167 33.7855 55.8029 33.8357 56.283 33.896L56.2382 34.2544ZM49.0672 34.133L49.0361 33.7732C49.5209 33.7313 50.0079 33.6988 50.4841 33.6768L50.501 34.0377C50.0296 34.0593 49.5473 34.0915 49.0672 34.133ZM53.3742 34.0221C52.9562 34.0066 52.5404 33.999 52.1264 33.999L51.937 33.9997L51.9349 33.6385L52.1264 33.6377C52.5451 33.6377 52.9652 33.6453 53.3875 33.6612L53.3742 34.0221ZM4.41377 33.7436C4.11573 33.3596 3.83106 32.9593 3.56697 32.554L3.86971 32.3567C4.12801 32.7537 4.40727 33.1457 4.69917 33.5221L4.41377 33.7436ZM126.374 33.6937L126.031 33.5796C126.184 33.1197 126.342 32.6627 126.505 32.209L126.845 32.3314C126.683 32.7823 126.526 33.2364 126.374 33.6937ZM2.82241 31.2986C2.59301 30.8719 2.37842 30.4301 2.18515 29.9858L2.51642 29.842C2.70573 30.2769 2.91562 30.7097 3.14069 31.1277L2.82241 31.2986ZM127.353 30.9832L127.016 30.8513C127.193 30.399 127.378 29.9518 127.568 29.5092L127.9 29.6523C127.711 30.0909 127.529 30.5349 127.353 30.9832ZM1.65951 28.6245C1.50453 28.1682 1.36581 27.6975 1.24767 27.225L1.5981 27.1372C1.71406 27.6 1.8499 28.0613 2.00199 28.5082L1.65951 28.6245ZM128.492 28.3409L128.167 28.1859C128.379 27.7376 128.598 27.3005 128.816 26.8872L129.135 27.0556C128.919 27.4649 128.703 27.8973 128.492 28.3409ZM129.832 25.8002L129.52 25.6174C129.768 25.1943 130.026 24.7782 130.289 24.379L130.591 24.5773C130.332 24.9714 130.076 25.3829 129.832 25.8002ZM0.949994 25.7976C0.906642 25.5393 0.868709 25.2785 0.835834 25.0155C0.808017 24.793 0.783091 24.5722 0.761054 24.3533L1.12051 24.3172C1.14255 24.5332 1.16675 24.7511 1.19421 24.9707C1.22636 25.229 1.26393 25.4848 1.30656 25.738L0.949994 25.7976ZM131.41 23.401L131.119 23.1861C131.409 22.7948 131.71 22.4115 132.014 22.047L132.292 22.279C131.991 22.638 131.695 23.0156 131.41 23.401ZM0.652674 22.9028C0.633528 22.4982 0.623413 22.0896 0.623413 21.6879L0.624496 21.4473L0.985758 21.4506L0.984675 21.6879C0.984675 22.0839 0.994428 22.4867 1.01358 22.8855L0.652674 22.9028ZM133.243 21.2111L132.981 20.9625C133.317 20.6092 133.665 20.266 134.016 19.943L134.261 20.2089C133.916 20.5261 133.573 20.8635 133.243 21.2111ZM1.04248 20.0185L0.682298 19.9932C0.716257 19.5081 0.766111 19.0207 0.830054 18.5446L1.18807 18.5926C1.12521 19.0612 1.07644 19.5409 1.04248 20.0185ZM135.344 19.278L135.118 18.9962C135.494 18.6956 135.886 18.4033 136.283 18.1284L136.489 18.4254C136.098 18.6956 135.713 18.9824 135.344 19.278ZM137.691 17.6534L137.506 17.343C137.92 17.0974 138.349 16.8615 138.783 16.6429L138.946 16.9655C138.52 17.1805 138.097 17.412 137.691 17.6534ZM1.42614 17.1797L1.0721 17.1078C1.16892 16.6313 1.28272 16.1545 1.41096 15.6906L1.75922 15.7867C1.63278 16.2426 1.52079 16.7115 1.42614 17.1797ZM2.18804 14.4204L1.84773 14.3001C2.00885 13.8439 2.18912 13.3876 2.38312 12.9439L2.71404 13.0885C2.52329 13.5245 2.34663 13.9728 2.18804 14.4204ZM3.33468 11.7984L3.01497 11.63C3.24076 11.2012 3.48533 10.776 3.74146 10.3656L4.04818 10.5567C3.79638 10.9599 3.55614 11.3779 3.33468 11.7984ZM4.84981 9.37034L4.55792 9.1572C4.84367 8.76595 5.14713 8.38049 5.46071 8.01128L5.73635 8.24501C5.42856 8.60772 5.13015 8.98632 4.84981 9.37034ZM6.70237 7.1876L6.44479 6.93436C6.78979 6.58393 7.14744 6.2476 7.50798 5.93402L7.74497 6.20677C7.39165 6.51421 7.04087 6.8444 6.70237 7.1876Z" fill="#3D3D3D"/>
<path d="M140.402 16.2954L140.263 15.962C140.485 15.8692 140.711 15.7792 140.94 15.6921L141.068 16.0299C140.843 16.1152 140.621 16.204 140.402 16.2954Z" fill="#3D3D3D"/>
<path d="M10.4776 7.49296C11.9814 6.87368 12.6984 5.15255 12.0791 3.64873C11.4599 2.14491 9.73874 1.42785 8.23491 2.04714C6.73109 2.66642 6.01403 4.38755 6.63332 5.89137C7.25261 7.39519 8.97373 8.11225 10.4776 7.49296Z" fill="#3D3D3D"/>
<path d="M60.9346 37.7607C62.5609 37.7607 63.8793 36.4423 63.8793 34.816C63.8793 33.1898 62.5609 31.8714 60.9346 31.8714C59.3083 31.8714 57.99 33.1898 57.99 34.816C57.99 36.4423 59.3083 37.7607 60.9346 37.7607Z" fill="#3D3D3D"/>
<path d="M141.004 18.805C142.631 18.805 143.949 17.4866 143.949 15.8604C143.949 14.2341 142.631 12.9157 141.004 12.9157C139.378 12.9157 138.06 14.2341 138.06 15.8604C138.06 17.4866 139.378 18.805 141.004 18.805Z" fill="#3D3D3D"/>
<path d="M103.823 71.0888C105.449 71.0888 106.768 69.7705 106.768 68.1442C106.768 66.5179 105.449 65.1995 103.823 65.1995C102.197 65.1995 100.879 66.5179 100.879 68.1442C100.879 69.7705 102.197 71.0888 103.823 71.0888Z" fill="#3D3D3D"/>
</svg>
