<svg width="16" height="11" viewBox="0 0 16 11" fill="none" xmlns="http://www.w3.org/2000/svg">
<g clip-path="url(#clip0_222_652)">
<path d="M3.63718 10.9466V5.30929L1.72034 3.70985L0.00146484 2.82227V9.95181C0.00146484 10.5023 0.490438 10.9466 1.0922 10.9466H3.63718Z" fill="#4285F4"/>
<path d="M12.3628 10.9466H14.9078C15.5113 10.9466 15.9985 10.5005 15.9985 9.95175V2.82227L14.0516 3.83888L12.3628 5.30923V10.9466Z" fill="#34A853"/>
<path d="M3.63714 5.30891L3.37631 3.10623L3.63714 0.998047L7.99997 3.98252L12.3628 0.998047L12.6546 2.99241L12.3628 5.30891L7.99997 8.29338L3.63714 5.30891Z" fill="#EA4335"/>
<path d="M12.3628 0.99762V5.30848L15.9986 2.82145V1.49501C15.9986 0.26478 14.4588 -0.436541 13.3809 0.301257L12.3628 0.99762Z" fill="#FBBC04"/>
<path d="M0.00170898 2.82148L1.67384 3.96537L3.63742 5.30851V0.997646L2.61936 0.301283C1.53955 -0.436572 0.00170898 0.264806 0.00170898 1.49498V2.82148Z" fill="#C5221F"/>
</g>
<defs>
<clipPath id="clip0_222_652">
<rect width="16" height="11" fill="white"/>
</clipPath>
</defs>
</svg>
