<svg width="20" height="14" viewBox="0 0 20 14" fill="none" xmlns="http://www.w3.org/2000/svg">
<path d="M19.3333 13.9998H0.666664C0.489854 13.9998 0.320285 13.9327 0.195261 13.8134C0.0702376 13.694 0 13.5322 0 13.3634C0 13.1946 0.0702376 13.0328 0.195261 12.9134C0.320285 12.7941 0.489854 12.7271 0.666664 12.7271H19.3333C19.5101 12.7271 19.6796 12.7941 19.8047 12.9134C19.9297 13.0328 19.9999 13.1946 19.9999 13.3634C19.9999 13.5322 19.9297 13.694 19.8047 13.8134C19.6796 13.9327 19.5101 13.9998 19.3333 13.9998Z" fill="white"/>
<path d="M19.3333 7.63649H0.666664C0.489854 7.63649 0.320285 7.56945 0.195261 7.45011C0.0702376 7.33077 0 7.1689 0 7.00013C0 6.83136 0.0702376 6.6695 0.195261 6.55016C0.320285 6.43081 0.489854 6.36377 0.666664 6.36377H19.3333C19.5101 6.36377 19.6796 6.43081 19.8047 6.55016C19.9297 6.6695 19.9999 6.83136 19.9999 7.00013C19.9999 7.1689 19.9297 7.33077 19.8047 7.45011C19.6796 7.56945 19.5101 7.63649 19.3333 7.63649Z" fill="white"/>
<path d="M19.3333 1.27272H0.666664C0.489854 1.27272 0.320285 1.20568 0.195261 1.08634C0.0702376 0.966996 0 0.805135 0 0.636361C0 0.467588 0.0702376 0.305727 0.195261 0.186386C0.320285 0.0670452 0.489854 0 0.666664 0H19.3333C19.5101 0 19.6796 0.0670452 19.8047 0.186386C19.9297 0.305727 19.9999 0.467588 19.9999 0.636361C19.9999 0.805135 19.9297 0.966996 19.8047 1.08634C19.6796 1.20568 19.5101 1.27272 19.3333 1.27272Z" fill="white"/>
</svg>
