<svg width="28" height="28" viewBox="0 0 28 28" fill="none" xmlns="http://www.w3.org/2000/svg">
<g clip-path="url(#clip0_222_663)">
<path d="M21.4374 0.000976562H6.56238C2.93801 0.000976562 -0.00012207 2.93911 -0.00012207 6.56348V21.4385C-0.00012207 25.0628 2.93801 28.001 6.56238 28.001H21.4374C25.0617 28.001 27.9999 25.0628 27.9999 21.4385V6.56348C27.9999 2.93911 25.0617 0.000976562 21.4374 0.000976562Z" fill="url(#paint0_radial_222_663)"/>
<path d="M21.4374 0.000976562H6.56238C2.93801 0.000976562 -0.00012207 2.93911 -0.00012207 6.56348V21.4385C-0.00012207 25.0628 2.93801 28.001 6.56238 28.001H21.4374C25.0617 28.001 27.9999 25.0628 27.9999 21.4385V6.56348C27.9999 2.93911 25.0617 0.000976562 21.4374 0.000976562Z" fill="url(#paint1_radial_222_663)"/>
<path d="M14.0009 3.0625C11.0305 3.0625 10.6576 3.07552 9.491 3.12856C8.3266 3.18194 7.53177 3.36623 6.83636 3.63672C6.11689 3.91606 5.50669 4.2898 4.89878 4.89792C4.29033 5.50594 3.9166 6.11614 3.63638 6.83528C3.36513 7.53091 3.18061 8.32606 3.12822 9.48992C3.07605 10.6566 3.06238 11.0296 3.06238 14.0001C3.06238 16.9706 3.0755 17.3423 3.12844 18.5089C3.18203 19.6733 3.36633 20.4681 3.6366 21.1635C3.91616 21.883 4.28989 22.4932 4.89802 23.1011C5.50582 23.7095 6.11602 24.0842 6.83494 24.3635C7.53089 24.634 8.32583 24.8183 9.49002 24.8717C10.6567 24.9247 11.0293 24.9377 13.9995 24.9377C16.9703 24.9377 17.3419 24.9247 18.5085 24.8717C19.6729 24.8183 20.4686 24.634 21.1646 24.3635C21.8837 24.0842 22.4931 23.7095 23.1008 23.1011C23.7092 22.4932 24.0828 21.883 24.3632 21.1638C24.632 20.4681 24.8166 19.6731 24.8713 18.5091C24.9237 17.3425 24.9374 16.9706 24.9374 14.0001C24.9374 11.0296 24.9237 10.6568 24.8713 9.49014C24.8166 8.32573 24.632 7.53102 24.3632 6.83561C24.0828 6.11614 23.7092 5.50594 23.1008 4.89792C22.4924 4.28958 21.884 3.91584 21.1639 3.63683C20.4667 3.36623 19.6714 3.18183 18.507 3.12856C17.3403 3.07552 16.9689 3.0625 13.9975 3.0625H14.0009ZM13.0197 5.03355C13.3109 5.03311 13.6359 5.03355 14.0009 5.03355C16.9213 5.03355 17.2673 5.04405 18.4206 5.09644C19.487 5.14522 20.0658 5.32339 20.4514 5.47312C20.9618 5.67131 21.3257 5.90833 21.7083 6.29125C22.0911 6.67406 22.328 7.03861 22.5268 7.54906C22.6765 7.93406 22.8549 8.51287 22.9034 9.57928C22.9558 10.7323 22.9672 11.0786 22.9672 13.9976C22.9672 16.9166 22.9558 17.263 22.9034 18.4159C22.8547 19.4823 22.6765 20.0611 22.5268 20.4462C22.3286 20.9567 22.0911 21.3201 21.7083 21.7027C21.3255 22.0855 20.962 22.3225 20.4514 22.5208C20.0663 22.6711 19.487 22.8489 18.4206 22.8977C17.2676 22.95 16.9213 22.9614 14.0009 22.9614C11.0803 22.9614 10.7342 22.95 9.58124 22.8977C8.51483 22.8484 7.93602 22.6703 7.55014 22.5205C7.0398 22.3222 6.67514 22.0853 6.29233 21.7025C5.90952 21.3197 5.67261 20.956 5.47388 20.4454C5.32414 20.0602 5.14575 19.4814 5.09719 18.415C5.0448 17.262 5.0343 16.9157 5.0343 13.9949C5.0343 11.0741 5.0448 10.7296 5.09719 9.57655C5.14597 8.51014 5.32414 7.93133 5.47388 7.54578C5.67217 7.03533 5.90952 6.67078 6.29244 6.28797C6.67525 5.90516 7.0398 5.66814 7.55025 5.46952C7.9358 5.31912 8.51483 5.14139 9.58124 5.09239C10.5902 5.04678 10.9812 5.03311 13.0197 5.03081V5.03355ZM19.8393 6.84961C19.1147 6.84961 18.5268 7.43695 18.5268 8.16167C18.5268 8.88628 19.1147 9.47417 19.8393 9.47417C20.5639 9.47417 21.1518 8.88628 21.1518 8.16167C21.1518 7.43706 20.5639 6.84917 19.8393 6.84917V6.84961ZM14.0009 8.38316C10.899 8.38316 8.38402 10.8981 8.38402 14.0001C8.38402 17.1021 10.899 19.6159 14.0009 19.6159C17.1028 19.6159 19.6169 17.1021 19.6169 14.0001C19.6169 10.8982 17.1026 8.38316 14.0006 8.38316H14.0009ZM14.0009 10.3542C16.0143 10.3542 17.6468 11.9864 17.6468 14.0001C17.6468 16.0136 16.0143 17.646 14.0009 17.646C11.9873 17.646 10.3551 16.0136 10.3551 14.0001C10.3551 11.9864 11.9873 10.3542 14.0009 10.3542Z" fill="white"/>
</g>
<defs>
<radialGradient id="paint0_radial_222_663" cx="0" cy="0" r="1" gradientUnits="userSpaceOnUse" gradientTransform="translate(7.43738 30.1575) rotate(-90) scale(27.7501 25.8098)">
<stop stop-color="#FFDD55"/>
<stop offset="0.1" stop-color="#FFDD55"/>
<stop offset="0.5" stop-color="#FF543E"/>
<stop offset="1" stop-color="#C837AB"/>
</radialGradient>
<radialGradient id="paint1_radial_222_663" cx="0" cy="0" r="1" gradientUnits="userSpaceOnUse" gradientTransform="translate(-4.69023 2.01796) rotate(78.681) scale(12.4044 51.1315)">
<stop stop-color="#3771C8"/>
<stop offset="0.128" stop-color="#3771C8"/>
<stop offset="1" stop-color="#6600FF" stop-opacity="0"/>
</radialGradient>
<clipPath id="clip0_222_663">
<rect width="28" height="28" fill="white"/>
</clipPath>
</defs>
</svg>
