<svg width="32" height="32" viewBox="0 0 32 32" fill="none" xmlns="http://www.w3.org/2000/svg">
<g clip-path="url(#clip0_222_671)">
<path d="M17.5312 18.9092L17.0079 20.4635L17.5676 22.1092H17.0398L16.6303 20.8429L16.2162 22.1092H15.7475L16.3072 20.4635L15.7839 18.9092H16.3026L16.6803 20.0886L17.0671 18.9092H17.5312ZM19.4864 18.9092L18.9631 20.4635L19.5228 22.1092H18.9949L18.5854 20.8429L18.1713 22.1092H17.7027L18.2623 20.4635L17.7391 18.9092H18.2578L18.6355 20.0886L19.0222 18.9092H19.4864ZM19.7717 18.9092H20.2722V22.1092H19.7717V18.9092ZM22.1 18.9092C22.361 18.9092 22.549 18.9701 22.6642 19.092C22.7825 19.214 22.8417 19.3983 22.8417 19.6452V19.7595C22.8417 19.924 22.816 20.0597 22.7643 20.1663C22.7128 20.2729 22.6309 20.3523 22.5186 20.404C22.6551 20.4558 22.7507 20.5412 22.8053 20.66C22.8629 20.7758 22.8917 20.9191 22.8917 21.0898V21.3503C22.8917 21.5972 22.828 21.7861 22.7006 21.9172C22.5732 22.0452 22.3837 22.1092 22.1318 22.1092H21.3446V18.9092H22.1ZM21.8452 20.6692V21.652H22.1318C22.2168 21.652 22.2805 21.6292 22.3229 21.5835C22.3684 21.5378 22.3912 21.4555 22.3912 21.3366V21.0578C22.3912 20.9084 22.3655 20.8063 22.3138 20.7515C22.2654 20.6966 22.1835 20.6692 22.0681 20.6692H21.8452ZM21.8452 19.3663V20.212H22.0408C22.1349 20.212 22.2077 20.1877 22.2592 20.1389C22.3138 20.0901 22.3411 20.0018 22.3411 19.8738V19.6955C22.3411 19.5797 22.32 19.4958 22.2774 19.444C22.2381 19.3923 22.1744 19.3663 22.0863 19.3663H21.8452ZM23.1888 18.9092H23.6893V22.1092H23.1888V18.9092ZM24.7105 20.8338L24.5558 21.1263V22.1092H24.0553V18.9092H24.5558V20.3035L25.2201 18.9092H25.7116L25.0154 20.3355L25.7116 22.1092H25.1974L24.7105 20.8338Z" fill="#8BBC57"/>
<path d="M6.52817 9.6001C6.78251 9.6001 6.971 9.667 7.09365 9.80067C7.21926 9.93433 7.28214 10.1303 7.28214 10.3887V10.8035C7.28214 11.0619 7.21926 11.2579 7.09365 11.3916C6.971 11.5252 6.78251 11.5921 6.52817 11.5921H6.2891V12.791H5.78339V9.6001H6.52817ZM6.2891 10.0559V11.1363H6.52817C6.60781 11.1363 6.66906 11.115 6.71206 11.0725C6.75492 11.03 6.77643 10.9509 6.77643 10.8354V10.3568C6.77643 10.2414 6.75492 10.1623 6.71206 10.1198C6.66906 10.0773 6.60781 10.0559 6.52817 10.0559H6.2891ZM7.51187 9.6001H8.01758V12.791H7.51187V9.6001ZM8.89302 10.9448H9.58723V11.4007H8.89302V12.3351H9.76653V12.791H8.3873V9.6001H9.76653V10.0559H8.89302V10.9448ZM11.4871 10.0559H10.8987V11.9978C10.8987 12.1588 10.8787 12.291 10.8389 12.3944C10.799 12.4978 10.7453 12.5798 10.678 12.6406C10.6105 12.6983 10.5324 12.7394 10.4435 12.7636C10.3577 12.7879 10.2672 12.8001 10.1723 12.8001C10.1263 12.8001 10.0849 12.8001 10.0482 12.8001C10.0114 12.8001 9.97149 12.797 9.92863 12.791V12.3351C9.95621 12.3382 9.98528 12.3397 10.016 12.3397C10.0465 12.3397 10.0757 12.3397 10.1033 12.3397C10.183 12.3397 10.2504 12.32 10.3056 12.2804C10.3637 12.2409 10.393 12.1588 10.393 12.0343V9.6001H11.9929V12.791H11.4871V10.0559Z" fill="#8BBC57"/>
<path d="M8.81593 17.7119C8.85985 17.7168 8.90626 17.7193 8.95502 17.7193C9.00377 17.7193 9.05018 17.7193 9.0941 17.7193C9.22103 17.7193 9.32835 17.6869 9.41619 17.6223C9.50887 17.5577 9.55528 17.4235 9.55528 17.2195V13.2363H12.1027V17.7119H12.5127V19.0545H11.6928V18.4578H9.6358V19.0545H8.81593V17.7119ZM10.3605 17.1599C10.3605 17.3787 10.3385 17.5627 10.2946 17.7119H11.2975V13.9822H10.3605V17.1599ZM14.0262 13.2363C14.4313 13.2363 14.7314 13.3457 14.9266 13.5645C15.1267 13.7834 15.2267 14.1041 15.2267 14.5268V15.2056C15.2267 15.6282 15.1267 15.9489 14.9266 16.1678C14.7314 16.3866 14.4313 16.496 14.0262 16.496H13.6455V18.4578H12.8403V13.2363H14.0262ZM13.6455 13.9822V15.7501H14.0262C14.1531 15.7501 14.2508 15.7153 14.319 15.6457C14.3874 15.576 14.4215 15.4468 14.4215 15.2578V14.4746C14.4215 14.2855 14.3874 14.1563 14.319 14.0867C14.2508 14.017 14.1531 13.9822 14.0262 13.9822H13.6455ZM15.5926 13.2363H16.3978V18.4578H15.5926V13.2363ZM18.6994 16.9436L19.2485 13.2363H20.3685V18.4578H19.6071V14.7133L19.0508 18.4578H18.2895L17.6892 14.7655V18.4578H16.9865V13.2363H18.1065L18.6994 16.9436Z" fill="#FFCC00"/>
<path d="M13.9938 27.6382C14.656 28.3564 14.4751 29.5314 14.4751 29.5314C14.4751 29.5314 13.2206 29.542 12.5584 28.8239C11.8963 28.1057 12.0769 26.9307 12.0769 26.9307C12.0769 26.9307 13.3314 26.9201 13.9938 27.6382Z" fill="#FFCC00"/>
<path d="M12.442 30.0739C13.2605 29.5164 14.4796 29.7954 14.4796 29.7954C14.4796 29.7954 14.3718 30.9784 13.5536 31.5357C12.7353 32.0933 11.5162 31.8143 11.5162 31.8143C11.5162 31.8143 11.6236 30.6316 12.442 30.0739Z" fill="#FFCC00"/>
<path d="M10.0958 29.7654C10.964 29.2804 12.1514 29.6626 12.1514 29.6626C12.1514 29.6626 11.9311 30.8315 11.0626 31.3166C10.1944 31.8017 9.00713 31.4194 9.00713 31.4194C9.00713 31.4194 9.22763 30.2505 10.0958 29.7654Z" fill="#FFCC00"/>
<path d="M8.05794 28.8497C9.01449 28.5483 10.0897 29.1587 10.0897 29.1587C10.0897 29.1587 9.61421 30.2577 8.65766 30.5591C7.70097 30.8603 6.62572 30.25 6.62572 30.25C6.62572 30.25 7.10154 29.151 8.05794 28.8497Z" fill="#FFCC00"/>
<path d="M6.2582 27.5871C7.26269 27.5096 8.15339 28.3448 8.15339 28.3448C8.15339 28.3448 7.41533 29.3055 6.41069 29.3829C5.4062 29.4604 4.5155 28.6252 4.5155 28.6252C4.5155 28.6252 5.25342 27.6645 6.2582 27.5871Z" fill="#FFCC00"/>
<path d="M4.74251 25.8191C5.71884 26.0537 6.27524 27.1173 6.27524 27.1173C6.27524 27.1173 5.24822 27.8003 4.27174 27.5656C3.29527 27.3309 2.73901 26.2674 2.73901 26.2674C2.73901 26.2674 3.76603 25.5845 4.74251 25.8191Z" fill="#FFCC00"/>
<path d="M3.58423 23.8885C4.49731 24.291 4.83479 25.4341 4.83479 25.4341C4.83479 25.4341 3.69166 25.9246 2.77858 25.5221C1.86536 25.1196 1.52788 23.9766 1.52788 23.9766C1.52788 23.9766 2.671 23.4862 3.58423 23.8885Z" fill="#FFCC00"/>
<path d="M2.88025 21.7477C3.64055 22.3729 3.63174 23.5599 3.63174 23.5599C3.63174 23.5599 2.39056 23.7335 1.63026 23.1083C0.869818 22.4831 0.878483 21.2961 0.878483 21.2961C0.878483 21.2961 2.11995 21.1224 2.88025 21.7477Z" fill="#FFCC00"/>
<path d="M2.59128 19.5077C3.19822 20.2684 2.93006 21.4286 2.93006 21.4286C2.93006 21.4286 1.67791 21.3553 1.07112 20.5946C0.464177 19.8338 0.732339 18.6738 0.732339 18.6738C0.732339 18.6738 1.98434 18.747 2.59128 19.5077Z" fill="#FFCC00"/>
<path d="M2.64372 17.14C3.12994 17.9748 2.69022 19.0872 2.69022 19.0872C2.69022 19.0872 1.46219 18.8459 0.975826 18.0112C0.48961 17.1764 0.929326 16.064 0.929326 16.064C0.929326 16.064 2.1575 16.3053 2.64372 17.14Z" fill="#FFCC00"/>
<path d="M11.7429 27.2656C12.3136 28.0511 11.9914 29.199 11.9914 29.199C11.9914 29.199 10.744 29.073 10.1733 28.2876C9.60265 27.5023 9.92482 26.3545 9.92482 26.3545C9.92482 26.3545 11.1723 26.4802 11.7429 27.2656Z" fill="#FFCC00"/>
<path d="M9.64107 26.3816C9.94447 27.2907 9.28251 28.2999 9.28251 28.2999C9.28251 28.2999 8.12871 27.8353 7.82516 26.9262C7.52177 26.017 8.18358 25.0078 8.18358 25.0078C8.18358 25.0078 9.33753 25.4724 9.64107 26.3816Z" fill="#FFCC00"/>
<path d="M7.74978 25.0135C7.89866 25.9564 7.07786 26.8552 7.07786 26.8552C7.07786 26.8552 6.01546 26.2248 5.86672 25.2817C5.71769 24.3387 6.53864 23.4399 6.53864 23.4399C6.53864 23.4399 7.6009 24.0705 7.74978 25.0135Z" fill="#FFCC00"/>
<path d="M6.23306 23.1721C6.22093 24.1257 5.25904 24.8889 5.25904 24.8889C5.25904 24.8889 4.31693 24.1061 4.32921 23.1523C4.34134 22.1986 5.30323 21.4355 5.30323 21.4355C5.30323 21.4355 6.24519 22.2184 6.23306 23.1721Z" fill="#FFCC00"/>
<path d="M5.28043 20.996C5.04866 21.9245 3.93413 22.4706 3.93413 22.4706C3.93413 22.4706 3.19534 21.5118 3.42741 20.5835C3.65918 19.6551 4.77371 19.1089 4.77371 19.1089C4.77371 19.1089 5.5122 20.0676 5.28043 20.996Z" fill="#FFCC00"/>
<path d="M4.80087 18.2952C4.57805 19.1877 3.50655 19.713 3.50655 19.713C3.50655 19.713 2.7965 18.7912 3.01932 17.8987C3.24214 17.0062 4.31364 16.481 4.31364 16.481C4.31364 16.481 5.02383 17.4028 4.80087 18.2952Z" fill="#FFCC00"/>
<path d="M4.09688 15.6775C4.04056 16.5928 3.08112 17.2853 3.08112 17.2853C3.08112 17.2853 2.21309 16.4938 2.26941 15.5786C2.32587 14.6632 3.28531 13.9707 3.28531 13.9707C3.28531 13.9707 4.15334 14.7621 4.09688 15.6775Z" fill="#FFCC00"/>
<path d="M2.86609 18.9556C2.93599 23.497 6.02513 27.6139 10.5768 29.0992C11.8254 29.5066 13.1353 29.6983 14.4551 29.6938C14.5389 29.6935 14.6858 29.5731 14.5386 29.5735C9.80121 29.5895 5.44996 26.7882 3.79578 22.5741C3.33354 21.3962 3.10379 20.1534 3.08458 18.8983C3.08343 18.8324 2.86494 18.874 2.86609 18.9556Z" fill="#FFCC00"/>
<path d="M15.4498 31.7563L15.3305 31.7423L15.3213 29.8768L15.3119 28.0114L15.8497 27.9832C21.7472 27.6879 26.6919 23.8046 27.9505 18.4818C29.0393 13.8688 27.0802 9.04237 22.9831 6.24499C20.8493 4.78666 18.3651 3.97386 15.7291 3.86725L15.191 3.84441L15.1814 1.90623L15.1717 -0.0281729L15.5975 -0.0558096C15.8286 -0.0715187 16.3122 -0.0776272 16.6698 -0.0649726C17.7313 -0.0303545 17.7059 -0.0629367 17.673 1.29735C17.6613 1.82826 17.6526 2.2719 17.6598 2.28281C17.6672 2.29372 17.8226 2.32557 18.0068 2.34652C18.7546 2.44456 19.593 2.62943 20.3308 2.86201C20.5477 2.92994 20.7285 2.98361 20.7285 2.97997C20.7321 2.97634 20.8034 2.80863 20.8854 2.60834C21.3422 1.52965 21.5423 1.12863 21.6431 1.07714C21.816 0.985354 22.0147 1.00979 22.3909 1.1679C22.7997 1.34041 23.737 1.80106 23.9543 1.93808C24.1282 2.0463 24.2446 2.22026 24.2453 2.36935C24.2456 2.43481 24.0707 2.82492 23.799 3.36441L23.3522 4.25037L23.6891 4.47408C24.3591 4.92164 24.9753 5.41299 25.534 5.94114L25.8133 6.20877L26.561 5.56499C27.3518 4.88455 27.4275 4.84063 27.666 4.91932C27.8506 4.98026 28.3842 5.5775 29.0094 6.43263C29.2785 6.79845 29.3371 6.98725 29.2551 7.19496C29.2266 7.26419 28.957 7.49474 28.4283 7.89736L27.6442 8.49765L27.8445 8.8239C28.143 9.30972 28.5807 10.2057 28.8219 10.808L29.0304 11.3379L29.9894 11.0859C30.797 10.8709 30.9666 10.8373 31.0606 10.8658C31.1799 10.9052 31.2924 11.0101 31.3615 11.1443C31.4272 11.2713 31.7146 12.4335 31.8073 12.9385L31.8374 13.3483L31.8141 13.5675C31.7607 13.6914 31.7104 13.7499 31.6239 13.7867C31.5591 13.8124 31.0938 13.9167 30.5926 14.0174L29.6801 14.2002L29.7066 14.4546C29.7182 14.5964 29.737 14.749 29.7445 14.7999C29.7742 14.9888 29.7677 16.5779 29.7336 16.9599C29.713 17.1782 29.703 17.36 29.7068 17.3637C29.714 17.3673 30.144 17.4524 30.6679 17.5516C31.192 17.6543 31.6509 17.7538 31.6908 17.7718C31.7994 17.8331 31.8834 18.0254 31.8808 18.2254C31.8755 18.6182 31.4938 20.271 31.3614 20.479C31.3184 20.541 31.2248 20.6216 31.1493 20.6619C30.9945 20.7391 31.0775 20.7532 29.6749 20.3894L29.0712 20.2325L28.886 20.7206C28.6721 21.2891 28.2399 22.1931 27.932 22.7219L27.7173 23.0902L28.5036 23.679C28.9384 24.0041 29.3118 24.3077 29.3338 24.3548C29.3921 24.4818 29.3823 24.6782 29.3179 24.813C29.1499 25.1484 28.0592 26.503 27.8577 26.6278C27.793 26.6681 27.6812 26.7014 27.609 26.7017C27.4862 26.7023 27.4101 26.6518 26.9025 26.2254C26.5872 25.9651 26.2355 25.6687 26.123 25.5711L25.9128 25.3903L25.6361 25.6608C25.0972 26.18 24.4393 26.7179 23.8024 27.1502L23.4715 27.3774L23.9234 28.2587C24.2006 28.7918 24.3793 29.1836 24.3798 29.2491C24.3805 29.3945 24.2658 29.5733 24.1002 29.6796C23.8951 29.8115 22.9337 30.2965 22.5374 30.4693C22.1483 30.6386 21.9426 30.6614 21.7689 30.5532C21.682 30.4991 21.6018 30.3614 21.3682 29.8389C21.2111 29.4798 21.0249 29.0734 20.9628 28.9282L20.8424 28.6706L20.4532 28.7999C19.8369 29.003 19.1553 29.1701 18.4844 29.279C18.1417 29.3317 17.8423 29.384 17.8171 29.3915C17.7846 29.3989 17.7778 29.4825 17.7934 29.7043C17.8015 29.8715 17.8217 30.3078 17.8343 30.6786C17.8598 31.4531 17.8351 31.5477 17.5902 31.6763C17.4605 31.7424 17.3704 31.7502 16.5076 31.7618C15.9877 31.768 15.5112 31.7633 15.4498 31.7563Z" fill="#8BBC57"/>
<path fill-rule="evenodd" clip-rule="evenodd" d="M0.182939 11.249C0.471362 9.52735 1.45352 9.49638 2.30309 7.66776C2.78058 9.62811 3.73767 9.85152 3.68568 11.5967C3.60595 14.2728 -0.259418 13.8891 0.182939 11.249Z" fill="#FFCC00"/>
<path fill-rule="evenodd" clip-rule="evenodd" d="M2.18554 8.6734C1.48161 9.75035 0.769118 10.0345 0.552053 11.3301C0.356912 12.4939 1.20791 13.1005 2.00848 13.0416C1.39682 12.8716 0.896884 12.2999 1.05123 11.3796C1.24981 10.1951 1.77038 9.94794 2.18554 8.6734Z" fill="white"/>
<path fill-rule="evenodd" clip-rule="evenodd" d="M2.92716 6.60637C3.2521 5.58699 3.85087 5.65501 4.5257 4.6202C4.64479 5.85223 5.20615 6.07233 5.02257 7.12697C4.74104 8.74422 2.42875 8.16977 2.92716 6.60637Z" fill="#FFCC00"/>
<path fill-rule="evenodd" clip-rule="evenodd" d="M4.36678 5.22006C3.84575 5.81158 3.38862 5.92116 3.14402 6.68829C2.92427 7.37745 3.38786 7.82082 3.87881 7.85572C3.52251 7.69854 3.26884 7.3073 3.44268 6.76237C3.66631 6.06104 4.00389 5.95705 4.36678 5.22006Z" fill="white"/>
</g>
<defs>
<clipPath id="clip0_222_671">
<rect width="32" height="32" fill="white"/>
</clipPath>
</defs>
</svg>
