<!-- Generated by IcoMoon.io -->
<svg version="1.1" xmlns="http://www.w3.org/2000/svg" width="54" height="32" viewBox="0 0 54 32">
<path fill="#fc0" d="M48.282 7.873c-0.884-1.123-1.932-2.075-3.094-2.834l0.57-3.392-4.42-1.607-1.741 2.966c-1.379-0.165-2.793-0.108-4.192 0.185l-1.996-2.802-4.262 1.989 0.866 3.329c-1.123 0.884-2.075 1.932-2.834 3.094l-3.392-0.57-1.607 4.42 2.966 1.741c-0.165 1.379-0.108 2.793 0.185 4.192l-2.802 1.995 1.989 4.262 3.329-0.866c0.884 1.123 1.932 2.075 3.094 2.834l-0.57 3.392 4.42 1.607 1.741-2.966c1.379 0.165 2.793 0.108 4.192-0.185l1.995 2.802 4.262-1.989-0.866-3.329c1.123-0.884 2.075-1.932 2.834-3.094l3.392 0.57 1.607-4.42-2.966-1.741c0.165-1.379 0.109-2.793-0.185-4.192l2.802-1.995-1.989-4.262-3.329 0.866zM41.796 23.919c-4.415 2.061-9.665 0.152-11.726-4.263s-0.152-9.665 4.263-11.726c4.415-2.061 9.665-0.152 11.726 4.263s0.152 9.665-4.263 11.726z"></path>
<path fill="#fe9f73" d="M20.662 3.792l-1.061 1.409c0 0-0.339 0.491-0.8 0.237l-0.401 0.694c-0.149 0.258-0.461 0.378-0.741 0.279-0.137-0.048-0.289-0.123-0.439-0.236-0.476-0.359-0.465-0.91-0.37-1.119s0.857-0.972 0.857-0.972l0.301-0.43 1.278-1.584 1.378 1.722z"></path>
<path fill="#101010" d="M18.982 3.631c-0.005-0.004-0.009-0.009-0.010-0.016-0.002-0.014 0.007-0.026 0.021-0.028 0.005-0.001 0.488-0.074 0.586 0.314 0.003 0.013-0.005 0.027-0.018 0.030s-0.027-0.005-0.030-0.018c-0.087-0.344-0.512-0.28-0.53-0.277-0.007 0.001-0.014-0.001-0.019-0.005z"></path>
<path fill="#101010" d="M19.889 4.128c-0.006-0.004-0.009-0.011-0.010-0.018-0.001-0.014 0.009-0.026 0.023-0.026s0.324-0.020 0.367 0.173c0.003 0.013-0.006 0.027-0.019 0.030s-0.027-0.005-0.030-0.019c-0.033-0.151-0.312-0.134-0.315-0.134-0.006 0-0.012-0.001-0.017-0.005z"></path>
<path fill="#101010" d="M19.322 4.013c-0.025 0.033-0.072 0.039-0.104 0.015s-0.039-0.071-0.015-0.104c0.025-0.033 0.071-0.039 0.104-0.015s0.039 0.071 0.015 0.104z"></path>
<path fill="#101010" d="M20 4.43c-0.025 0.033-0.072 0.039-0.104 0.015s-0.039-0.072-0.015-0.104c0.025-0.033 0.072-0.039 0.104-0.015s0.039 0.072 0.015 0.104z"></path>
<path fill="#101010" d="M19.281 2.191l-0.022 0.721c0 0 0.712 1.149 1.577 1.075s0.873-0.416 0.897-0.762c0.012-0.17-0.169-0.671-0.752-0.806-0.318-0.074-0.256-0.522-0.654-0.573s-0.932-0.022-0.977 0.114c-0.045 0.136-0.069 0.232-0.069 0.232z"></path>
<path fill="#101010" d="M19.45 2.007c0 0-0.441-0.367-0.901-0.023s-0.462 0.705-0.557 0.84c-0.095 0.135-0.851 0.954-0.179 1.356l1.271-1.337 0.223-0.746 0.144-0.091z"></path>
<path fill="#fe9f73" d="M18.494 3.8c0.247-0.003 0.444-0.206 0.441-0.453s-0.206-0.444-0.453-0.441c-0.247 0.003-0.444 0.206-0.441 0.453s0.206 0.444 0.453 0.441z"></path>
<path fill="#f07162" d="M18.298 3.552c-0.074-0.056-0.082-0.149-0.056-0.217 0.030-0.080 0.101-0.128 0.179-0.121 0.116 0.010 0.164 0.096 0.183 0.148 0.015-0.052 0.013-0.1-0.006-0.142-0.041-0.092-0.15-0.129-0.151-0.13-0.007-0.002-0.010-0.009-0.008-0.016s0.009-0.010 0.016-0.008c0.005 0.002 0.12 0.041 0.166 0.143 0.026 0.059 0.024 0.126-0.007 0.199l-0.017 0.041-0.006-0.044c-0.001-0.006-0.024-0.153-0.171-0.166-0.082-0.007-0.134 0.052-0.154 0.105-0.021 0.055-0.020 0.137 0.048 0.188 0.001 0.001 0.001 0.001 0.002 0.002 0.005 0.004 0.007 0.012 0.003 0.017s-0.012 0.007-0.017 0.003c-0.001-0.001-0.001-0.001-0.002-0.002z"></path>
<path fill="#101010" d="M19.839 5.029c0 0-0.589 1.052-1.248 0.608-0.943-0.634-0.641-1.218-0.376-1.682l0.649-0.881 0.22-0.232c0.010 0.121-0.020 0.241-0.084 0.344-0.139 0.224-0.518 0.823-0.484 0.887 0.047 0.091 1.251 0.756 1.323 0.954z"></path>
<path fill="#f07162" d="M19.23 4.574c-0.004-0.003-0.006-0.009-0.004-0.014 0.002-0.006 0.009-0.010 0.016-0.008l0.248 0.084 0.29-0.515c0.003-0.006 0.011-0.008 0.017-0.005s0.008 0.011 0.005 0.017l-0.3 0.533-0.268-0.091c-0.001-0-0.002-0.001-0.003-0.002z"></path>
<path fill="#fbfdfc" d="M18.985 4.619c0.007 0.004 0.42 0.301 0.42 0.301s-0.178 0.129-0.331 0.019c-0.154-0.11-0.088-0.32-0.088-0.32z"></path>
<path fill="#fe9f73" d="M23.416 11.311c0.253-0.289 0.662-0.823 0.771-1.056 0-0 0-0 0-0.001 0.011-0.022 0.018-0.041 0.022-0.058 0-0.001 0.001-0.001 0.001-0.002 0.001-0.005 0.002-0.009 0.003-0.013 0.012-0.072 0.034-0.152 0.065-0.235 0.059-0.271 0.085-0.561 0.122-0.643 0.035-0.075 0.182-0.163 0.279-0.215 0.081-0.043 0.126-0.137 0.101-0.225-0.015-0.051-0.052-0.099-0.132-0.121 0 0 0.071-0.247-0.154-0.277 0 0 0.081-0.271-0.28-0.23 0 0-0.026-0.154-0.197-0.159s-0.54 0.15-0.592 0.196c-0.052 0.046-0.612 0.811-0.612 0.811s-0.505 1.055-0.545 1.105l1.148 1.121z"></path>
<path fill="#f07162" d="M23.468 8.74c0.005-0.001 0.010-0.004 0.014-0.008 0.001-0.002 0.144-0.188 0.216-0.239 0.058-0.041 0.368-0.171 0.523-0.234 0.011-0.005 0.017-0.018 0.013-0.029s-0.017-0.017-0.029-0.012c-0.019 0.008-0.456 0.184-0.533 0.239s-0.22 0.241-0.226 0.249c-0.007 0.010-0.006 0.024 0.004 0.031 0.005 0.004 0.011 0.005 0.017 0.004z"></path>
<path fill="#f07162" d="M23.821 8.985c0.006-0.001 0.011-0.004 0.014-0.009 0.001-0.002 0.111-0.152 0.198-0.223s0.467-0.264 0.471-0.266c0.011-0.006 0.015-0.019 0.010-0.030s-0.019-0.015-0.030-0.010c-0.016 0.008-0.388 0.196-0.479 0.271s-0.201 0.225-0.206 0.231c-0.007 0.010-0.005 0.024 0.005 0.031 0.005 0.004 0.011 0.005 0.017 0.004z"></path>
<path fill="#f07162" d="M24.064 9.188c0.006-0.001 0.011-0.004 0.015-0.010 0.001-0.001 0.071-0.104 0.156-0.18s0.418-0.232 0.421-0.234c0.011-0.005 0.016-0.018 0.011-0.029s-0.018-0.016-0.029-0.010c-0.014 0.007-0.342 0.161-0.432 0.241s-0.161 0.184-0.164 0.189c-0.007 0.010-0.004 0.024 0.006 0.031 0.005 0.003 0.011 0.004 0.016 0.003z"></path>
<path fill="#fe9f73" d="M2.257 29.898l1.257-1.36c0 0-1.145-0.339-1.191-0.328s-1.024 0.338-1.024 0.338-0.268 0.478-0.257 0.671c0.011 0.193 0.113 0.646 0.317 0.771s0.238 0.215 0.42 0.147c0.181-0.068 0.478-0.239 0.478-0.239z"></path>
<path fill="#fe9f73" d="M13.028 31.302l-1.644 0.006-0.005-0.458 0.646-1.7 1.909 0.215-0.906 1.937z"></path>
<path fill="#101010" d="M11.364 31.436h1.793l0.727-0.792 1.33 0.792h0.286c0.099 0 0.189 0.067 0.208 0.164 0.025 0.13-0.074 0.244-0.2 0.244h-4.169c-0.031 0-0.056-0.025-0.056-0.055v-0.272c0-0.045 0.036-0.081 0.081-0.081z"></path>
<path fill="#3d3d3d" d="M11.38 31.439v-0.736c0 0 0.302-0.406 0.762-0.199 0 0 0.695 0.493 1.308-0.104l1.522 0.675c0 0 0.417 0.14 0.53 0.363l-4.123-0z"></path>
<path fill="#101010" d="M11.395 30.703h-0.031v0.732h0.031v-0.732z"></path>
<path fill="#101010" d="M12.765 30.711c0.058 0 0.093-0.005 0.095-0.005l-0.005-0.030c-0.004 0-0.363 0.051-0.705-0.184l-0.017 0.025c0.245 0.168 0.499 0.194 0.632 0.194z"></path>
<path fill="#101010" d="M11.577 31.146l-0.017 0.025 0.195 0.131 0.017-0.025-0.195-0.131z"></path>
<path fill="#101010" d="M11.714 31.103l-0.017 0.025 0.194 0.131 0.017-0.025-0.194-0.131z"></path>
<path fill="#101010" d="M15.649 31.808c0.049-0.042 0.077-0.103 0.077-0.167 0-0.121-0.098-0.219-0.219-0.219h-4.122c-0.065 0-0.118 0.053-0.118 0.118v0.203h0.031v-0.203c0-0.048 0.039-0.087 0.087-0.087h4.122c0.104 0 0.189 0.085 0.189 0.189 0 0.056-0.024 0.108-0.067 0.144l0.020 0.023z"></path>
<path fill="#101010" d="M15.494 31.444l0.028-0.013c-0.003-0.007-0.087-0.178-0.399-0.311-0.306-0.131-1.653-0.728-1.666-0.734l-0.012 0.028c0.014 0.006 1.361 0.603 1.667 0.734 0.3 0.128 0.382 0.295 0.383 0.296z"></path>
<path fill="#3d3d3d" d="M11.049 18.064c0 0 2.864 2.501 5.246 3.136l-4.609 8.031c0 0 0.96 1.029 2.555 1.029 0 0 6.302-9.185 6.305-10.259 0.002-0.769-5.447-4.366-5.447-4.366l-4.050 1.17v1.26z"></path>
<path fill="#3d3d3d" d="M0.992 28.234l9-15.21 2.662-0.167 2.445 2.777c0 0-1.035 1.485-2.7 3.015s-3.6 2.902-5.647 6.052c-2.047 3.15-3.307 4.995-3.307 4.995s-1.462-0.585-2.452-1.463z"></path>
<path fill="#3d3d3d" d="M3.058 31.548h-1.703l-0.994-2.625c-0.050-0.131 0.037-0.274 0.176-0.291l0.779-0.093c0 0 0.081 1.108 0.941 1.36l-0.145 0.877c0.41 0.156 0.515 0.126 0.946 0.354 0.24 0.127 0 0.418 0 0.418z"></path>
<path fill="#8bbc57" d="M15.352 15.822c0 0 0.433-2.596 0.816-3.046s0.742-0.748 0.742-0.748c0.564 1.242 1.554 2.999 1.857 3.157 0.517 0.27 1.8-0.518 2.812-1.642s2.137-2.317 2.137-2.317l-1.26-1.53-1.776 1.572-0.946 0.835c0 0-1.305-5.242-1.642-6.412s-1.237-1.013-1.237-1.013c-1.305 0.225-6.862 8.347-6.862 8.347s1.444 0.435 1.935 0.653c1.417 0.63 1.518 2.062 3.425 2.145z"></path>
<path fill="#101010" d="M18.977 15.254c-0.092 0-0.166-0.016-0.223-0.047-0.271-0.146-0.921-1.321-0.949-1.371-1.389-2.179-1.652-4.948-1.654-4.976l0.051-0.005c0.003 0.028 0.264 2.784 1.647 4.954 0.008 0.013 0.671 1.213 0.929 1.352 0.25 0.135 0.947-0.053 1.886-0.784 0.926-0.722 2.395-2.487 2.41-2.504l0.039 0.033c-0.015 0.018-1.487 1.787-2.418 2.512-0.764 0.595-1.366 0.836-1.719 0.836z"></path>
<path fill="#101010" d="M19.542 12.864l-0.049-0.014 0.214-0.748-0.939-3.729 0.049-0.012 0.942 3.743-0.218 0.762z"></path>
<path fill="#101010" d="M22.441 9.677l-2.725 2.405 0.034 0.038 2.725-2.405-0.034-0.038z"></path>
<path fill="#101010" d="M15.256 15.85c-0.73 0-1.497-0.459-2.281-1.366-0.711-0.823-1.919-1.098-1.931-1.101l0.011-0.050c0.012 0.003 1.237 0.281 1.959 1.117 0.801 0.926 1.581 1.38 2.317 1.347 0.041-0.209 0.396-2.018 0.635-2.688l0.048 0.017c-0.251 0.704-0.633 2.68-0.637 2.7l-0.004 0.020-0.020 0.001c-0.032 0.002-0.065 0.003-0.097 0.003z"></path>
<path fill="#101010" d="M0.344 28.846l0.949 2.54c0.037 0.097 0.13 0.162 0.234 0.162h1.471c0.042 0 0.081 0.022 0.101 0.058 0.010 0.018 0.019 0.040 0.025 0.064 0.019 0.079-0.033 0.144-0.114 0.144h-1.637c-0.123 0-0.232-0.078-0.273-0.193l-0.94-2.725c-0.014-0.039-0.003-0.085 0.032-0.109 0.014-0.010 0.033-0.016 0.057-0.015 0.043 0.003 0.079 0.034 0.095 0.075z"></path>
<path fill="#101010" d="M3.012 31.826v-0.026c0.035 0 0.066-0.013 0.085-0.038s0.025-0.056 0.017-0.090c-0.005-0.020-0.013-0.041-0.024-0.061-0.018-0.032-0.052-0.052-0.090-0.052h-1.471c-0.109 0-0.208-0.068-0.246-0.17l-0.949-2.54c-0.014-0.038-0.047-0.064-0.083-0.066-0.019-0.002-0.035 0.003-0.049 0.012-0.028 0.019-0.039 0.058-0.027 0.094l-0.024 0.008c-0.016-0.047-0.001-0.098 0.037-0.124 0.018-0.013 0.040-0.018 0.065-0.017 0.046 0.003 0.088 0.035 0.106 0.083l0.949 2.54c0.035 0.092 0.124 0.154 0.223 0.154h1.471c0.047 0 0.090 0.025 0.113 0.065 0.012 0.022 0.021 0.044 0.026 0.067 0.010 0.042 0.003 0.082-0.021 0.112s-0.061 0.047-0.105 0.047z"></path>
<path fill="#101010" d="M1.178 28.798l0.139-0.249 0.095 0.11 0.069 0.161 0.043 0.085 0.033 0.153 0.038 0.197-0.004 0.103-0.128 0.073c0 0-0.046-0.117-0.049-0.12s-0.236-0.513-0.236-0.513z"></path>
<path fill="#fe9f73" d="M1.594 29.33l0.038 0.226c0 0 0.065 0.153 0.14 0.198l0.099 0.057 0.183 0.062 0.171 0.021 0.008-0.090-0.639-0.474z"></path>
<path fill="#101010" d="M3.12 31.196c-0.17-0.187-1.003-0.406-1.011-0.408l0.006-0.025c0.035 0.009 0.849 0.223 1.024 0.416l-0.019 0.017z"></path>
<path fill="#101010" d="M1.851 30.98l-0.015-0.021 0.264-0.191 0.142-0.859-0.013-0.002c-0.258-0.034-0.611-0.080-0.646-0.526-0.051-0.666-0.273-0.831-0.275-0.833l0.015-0.021c0.010 0.007 0.233 0.171 0.286 0.852 0.033 0.426 0.36 0.469 0.623 0.503l0.039 0.005-0.148 0.895-0.273 0.197z"></path>
</svg>
