<!-- Generated by IcoMoon.io -->
<svg version="1.1" xmlns="http://www.w3.org/2000/svg" width="48" height="32" viewBox="0 0 48 32">
<path fill="#8bbc57" d="M6.811 1.803c-2.505 0-4.536 2.030-4.536 4.536 0 2.504 2.030 4.536 4.536 4.536 2.504 0 4.536-2.031 4.536-4.536 0-2.505-2.031-4.536-4.536-4.536zM6.811 8.456c-1.17 0-2.119-0.948-2.119-2.118s0.949-2.119 2.119-2.119c1.17 0 2.119 0.949 2.119 2.119s-0.949 2.118-2.119 2.118z"></path>
<path fill="#8bbc57" d="M7.683 1.991h-1.744l0.096-1.235h1.551l0.096 1.235z"></path>
<path fill="#8bbc57" d="M4.363 2.578l-1.233 1.233-0.805-0.941 1.097-1.097 0.941 0.805z"></path>
<path fill="#8bbc57" d="M2.431 5.341v1.744l-1.235-0.096v-1.551l1.235-0.096z"></path>
<path fill="#8bbc57" d="M3.019 8.661l1.233 1.233-0.941 0.805-1.097-1.097 0.805-0.941z"></path>
<path fill="#8bbc57" d="M5.782 10.593h1.744l-0.096 1.235h-1.551l-0.096-1.235z"></path>
<path fill="#8bbc57" d="M9.102 10.005l1.233-1.233 0.805 0.941-1.097 1.097-0.941-0.805z"></path>
<path fill="#8bbc57" d="M11.034 7.242v-1.744l1.235 0.096v1.551l-1.235 0.096z"></path>
<path fill="#8bbc57" d="M10.446 3.923l-1.233-1.233 0.941-0.805 1.097 1.097-0.805 0.941z"></path>
<path fill="#fc0" d="M14.303 15.488c-2.994 0-5.428 2.435-5.428 5.428s2.434 5.427 5.428 5.427c2.991 0 5.425-2.434 5.425-5.427s-2.434-5.428-5.425-5.428zM14.303 25.188c-2.363 0-4.274-1.912-4.274-4.272 0-2.361 1.911-4.273 4.274-4.273 2.359 0 4.27 1.912 4.27 4.273 0 2.36-1.911 4.272-4.27 4.272zM14.303 15.488c-2.994 0-5.428 2.435-5.428 5.428s2.434 5.427 5.428 5.427c2.991 0 5.425-2.434 5.425-5.427s-2.434-5.428-5.425-5.428zM14.303 25.188c-2.363 0-4.274-1.912-4.274-4.272 0-2.361 1.911-4.273 4.274-4.273 2.359 0 4.27 1.912 4.27 4.273 0 2.36-1.911 4.272-4.27 4.272zM14.303 11.766c-5.054 0-9.15 4.097-9.15 9.15 0 5.052 4.096 9.148 9.15 9.148 5.050 0 9.147-4.096 9.147-9.148 0-5.053-4.097-9.15-9.147-9.15zM14.303 26.864c-3.28 0-5.95-2.668-5.95-5.948 0-3.279 2.67-5.949 5.95-5.949 3.278 0 5.946 2.67 5.946 5.949 0 3.28-2.668 5.948-5.945 5.948zM14.303 15.488c-2.994 0-5.428 2.435-5.428 5.428s2.434 5.427 5.428 5.427c2.991 0 5.425-2.434 5.425-5.427s-2.434-5.428-5.425-5.428zM14.303 25.188c-2.363 0-4.274-1.912-4.274-4.272 0-2.361 1.911-4.273 4.274-4.273 2.359 0 4.27 1.912 4.27 4.273 0 2.36-1.911 4.272-4.27 4.272z"></path>
<path fill="#fc0" d="M15.375 11.932h-2.095l0.209-2.091h1.678l0.209 2.091z"></path>
<path fill="#fc0" d="M10.74 12.598l-1.814 1.047-0.865-1.915 1.453-0.839 1.226 1.707z"></path>
<path fill="#fc0" d="M7.058 15.493l-1.047 1.814-1.707-1.226 0.839-1.453 1.915 0.865z"></path>
<path fill="#fc0" d="M5.318 19.841v2.095l-2.091-0.209v-1.678l2.091-0.209z"></path>
<path fill="#fc0" d="M5.984 24.477l1.047 1.814-1.915 0.865-0.839-1.453 1.706-1.226z"></path>
<path fill="#fc0" d="M8.879 28.158l1.814 1.047-1.226 1.706-1.453-0.839 0.865-1.915z"></path>
<path fill="#fc0" d="M13.226 29.899h2.095l-0.209 2.091h-1.678l-0.209-2.091z"></path>
<path fill="#fc0" d="M17.862 29.232l1.814-1.047 0.865 1.915-1.453 0.839-1.226-1.707z"></path>
<path fill="#fc0" d="M21.543 26.337l1.047-1.814 1.707 1.226-0.839 1.453-1.915-0.865z"></path>
<path fill="#fc0" d="M23.284 21.99v-2.095l2.091 0.209v1.678l-2.091 0.209z"></path>
<path fill="#fc0" d="M22.618 17.354l-1.047-1.814 1.915-0.865 0.839 1.453-1.706 1.226z"></path>
<path fill="#fc0" d="M19.723 13.673l-1.814-1.047 1.226-1.706 1.453 0.839-0.865 1.915z"></path>
<path fill="#fc0" d="M44.376 10.213c-0.106-1.139-1.113-1.975-2.25-1.869-1.139 0.106-1.976 1.113-1.87 2.253 0.106 1.138 1.114 1.975 2.253 1.869 1.138-0.106 1.974-1.115 1.868-2.253zM42.485 12.214c-1 0.093-1.885-0.642-1.978-1.641-0.093-1 0.642-1.885 1.641-1.978s1.884 0.642 1.977 1.642c0.093 0.999-0.642 1.884-1.64 1.977zM44.376 10.213c-0.106-1.139-1.113-1.975-2.25-1.869-1.139 0.106-1.976 1.113-1.87 2.253 0.106 1.138 1.114 1.975 2.253 1.869 1.138-0.106 1.974-1.115 1.868-2.253zM42.485 12.214c-1 0.093-1.885-0.642-1.978-1.641-0.093-1 0.642-1.885 1.641-1.978s1.884 0.642 1.977 1.642c0.093 0.999-0.642 1.884-1.64 1.977zM44.376 10.213c-0.106-1.139-1.113-1.975-2.25-1.869-1.139 0.106-1.976 1.113-1.87 2.253 0.106 1.138 1.114 1.975 2.253 1.869 1.138-0.106 1.974-1.115 1.868-2.253zM42.485 12.214c-1 0.093-1.885-0.642-1.978-1.641-0.093-1 0.642-1.885 1.641-1.978s1.884 0.642 1.977 1.642c0.093 0.999-0.642 1.884-1.64 1.977zM46.659 10.002c-0.222-2.399-2.349-4.163-4.746-3.94-2.4 0.223-4.163 2.349-3.941 4.747 0.224 2.397 2.348 4.163 4.749 3.94 2.397-0.223 4.162-2.35 3.938-4.747zM42.538 12.786c-1.313 0.122-2.48-0.846-2.603-2.16s0.847-2.481 2.16-2.603 2.48 0.847 2.602 2.161c0.122 1.313-0.847 2.48-2.159 2.602zM42.125 8.344c-1.139 0.106-1.976 1.113-1.87 2.253 0.106 1.138 1.114 1.975 2.253 1.869 1.138-0.106 1.974-1.115 1.868-2.253-0.106-1.139-1.113-1.975-2.25-1.869zM42.485 12.214c-1 0.093-1.885-0.642-1.978-1.641-0.093-1 0.642-1.885 1.641-1.978s1.884 0.642 1.977 1.642c0.093 0.999-0.642 1.884-1.64 1.977zM44.376 10.213c-0.106-1.139-1.113-1.975-2.25-1.869-1.139 0.106-1.976 1.113-1.87 2.253 0.106 1.138 1.114 1.975 2.253 1.869 1.138-0.106 1.974-1.115 1.868-2.253zM42.485 12.214c-1 0.093-1.885-0.642-1.978-1.641-0.093-1 0.642-1.885 1.641-1.978s1.884 0.642 1.977 1.642c0.093 0.999-0.642 1.884-1.64 1.977zM44.376 10.213c-0.106-1.139-1.113-1.975-2.25-1.869-1.139 0.106-1.976 1.113-1.87 2.253 0.106 1.138 1.114 1.975 2.253 1.869 1.138-0.106 1.974-1.115 1.868-2.253zM42.485 12.214c-1 0.093-1.885-0.642-1.978-1.641-0.093-1 0.642-1.885 1.641-1.978s1.884 0.642 1.977 1.642c0.093 0.999-0.642 1.884-1.64 1.977z"></path>
<path fill="#fc0" d="M42.764 6.164l-1.67 0.155-0.017-1.191 1.485-0.138 0.202 1.174z"></path>
<path fill="#fc0" d="M39.638 7.022l-1.071 1.291-0.854-0.83 0.953-1.148 0.973 0.687z"></path>
<path fill="#fc0" d="M38.034 9.84l0.155 1.67-1.191 0.018-0.138-1.485 1.174-0.202z"></path>
<path fill="#fc0" d="M38.892 12.967l1.29 1.071-0.83 0.854-1.148-0.953 0.687-0.973z"></path>
<path fill="#fc0" d="M41.709 14.571l1.67-0.155 0.017 1.191-1.485 0.138-0.202-1.174z"></path>
<path fill="#fc0" d="M44.836 13.713l1.071-1.291 0.854 0.83-0.953 1.148-0.973-0.687z"></path>
<path fill="#fc0" d="M46.44 10.895l-0.155-1.67 1.191-0.018 0.138 1.486-1.174 0.202z"></path>
<path fill="#fc0" d="M45.582 7.768l-1.291-1.071 0.83-0.854 1.148 0.953-0.687 0.973z"></path>
<path fill="#8bbc57" d="M31.012 7.213c-3.208 0-5.808 2.6-5.808 5.808 0 3.207 2.6 5.807 5.808 5.807s5.807-2.6 5.807-5.807c0-3.208-2.6-5.808-5.807-5.808zM31.012 15.733c-1.499 0-2.713-1.214-2.713-2.712 0-1.499 1.214-2.713 2.713-2.713 1.498 0 2.712 1.214 2.712 2.713 0 1.498-1.214 2.712-2.712 2.712z"></path>
<path fill="#8bbc57" d="M32.128 7.454h-2.233l0.123-1.581h1.986l0.123 1.581z"></path>
<path fill="#8bbc57" d="M27.877 8.207l-1.579 1.579-1.030-1.205 1.405-1.405 1.205 1.030z"></path>
<path fill="#8bbc57" d="M25.403 11.744v2.233l-1.581-0.123v-1.986l1.581-0.123z"></path>
<path fill="#8bbc57" d="M26.156 15.995l1.579 1.579-1.205 1.031-1.405-1.405 1.030-1.205z"></path>
<path fill="#8bbc57" d="M29.694 18.469h2.233l-0.123 1.581h-1.986l-0.123-1.581z"></path>
<path fill="#8bbc57" d="M33.944 17.717l1.579-1.579 1.030 1.205-1.404 1.405-1.205-1.031z"></path>
<path fill="#8bbc57" d="M36.418 14.179v-2.233l1.581 0.123v1.986l-1.581 0.123z"></path>
<path fill="#8bbc57" d="M35.666 9.928l-1.579-1.579 1.205-1.030 1.404 1.405-1.030 1.205z"></path>
<path fill="#3d3d3d" d="M2.65 1.59l-0.063-0.088c0.113-0.081 0.18-0.121 0.183-0.123l0.055 0.093c-0.001 0.001-0.067 0.039-0.175 0.117z"></path>
<path fill="#3d3d3d" d="M30.962 20.259c-0.146-0.001-0.293-0.006-0.435-0.014l0.006-0.108c0.14 0.008 0.285 0.013 0.429 0.014l-0.001 0.108zM31.396 20.251l-0.005-0.108c0.144-0.007 0.287-0.019 0.425-0.035l0.013 0.107c-0.141 0.017-0.286 0.029-0.433 0.036zM30.095 20.207c-0.145-0.016-0.289-0.037-0.43-0.061l0.018-0.106c0.138 0.024 0.281 0.044 0.424 0.060l-0.012 0.107zM32.257 20.147l-0.021-0.106c0.141-0.028 0.28-0.062 0.413-0.101l0.031 0.104c-0.136 0.040-0.278 0.075-0.422 0.104zM29.239 20.060c-0.142-0.034-0.283-0.072-0.419-0.115l0.032-0.103c0.134 0.042 0.273 0.079 0.412 0.113l-0.025 0.105zM33.090 19.901l-0.040-0.1c0.132-0.053 0.261-0.113 0.385-0.178l0.050 0.096c-0.127 0.067-0.26 0.128-0.395 0.182zM28.41 19.802c-0.134-0.052-0.269-0.11-0.399-0.173l0.046-0.097c0.128 0.061 0.26 0.118 0.392 0.169l-0.039 0.101zM33.859 19.496l-0.060-0.090c0.117-0.078 0.231-0.164 0.34-0.254l0.069 0.083c-0.112 0.093-0.229 0.181-0.349 0.261zM27.625 19.428c-0.125-0.071-0.249-0.148-0.37-0.229l0.060-0.090c0.118 0.079 0.241 0.155 0.363 0.224l-0.053 0.094zM26.902 18.946c-0.113-0.087-0.226-0.18-0.336-0.276l0.071-0.081c0.108 0.095 0.219 0.186 0.331 0.272l-0.066 0.086zM34.529 18.94l-0.077-0.076c0.097-0.099 0.193-0.205 0.285-0.317l0.083 0.069c-0.094 0.114-0.192 0.223-0.292 0.324zM26.248 18.375c-0.101-0.099-0.202-0.204-0.303-0.312l0.079-0.073c0.099 0.107 0.199 0.211 0.299 0.308l-0.076 0.077zM35.084 18.269l-0.089-0.062c0.080-0.114 0.158-0.235 0.232-0.36l0.093 0.055c-0.076 0.127-0.155 0.25-0.236 0.366zM25.657 17.736c-0.090-0.106-0.182-0.219-0.274-0.336l0.085-0.067c0.092 0.116 0.183 0.229 0.272 0.333l-0.083 0.070zM35.531 17.523l-0.096-0.050c0.063-0.122 0.127-0.252 0.188-0.386l0.098 0.045c-0.062 0.136-0.126 0.267-0.19 0.391zM25.12 17.055c-0.086-0.116-0.17-0.233-0.254-0.351l0.088-0.062c0.083 0.118 0.167 0.234 0.253 0.349l-0.087 0.064zM35.893 16.732l-0.1-0.041c0.052-0.128 0.104-0.264 0.155-0.402l0.102 0.037c-0.051 0.139-0.103 0.276-0.156 0.405zM24.619 16.347c-0.081-0.119-0.162-0.239-0.242-0.359l0.090-0.060c0.080 0.12 0.161 0.239 0.241 0.358l-0.089 0.061zM36.192 15.917l-0.103-0.034c0.045-0.135 0.089-0.272 0.132-0.411l0.103 0.032c-0.043 0.139-0.087 0.277-0.132 0.413zM24.138 15.628l-0.239-0.361 0.090-0.060 0.239 0.362-0.090 0.060zM36.447 15.088l-0.104-0.030c0.039-0.137 0.078-0.276 0.116-0.416l0.104 0.028c-0.038 0.14-0.077 0.28-0.116 0.417zM23.658 14.907c-0.080-0.119-0.162-0.239-0.244-0.357l0.089-0.061c0.082 0.119 0.164 0.239 0.244 0.358l-0.090 0.060zM36.675 14.251l-0.105-0.027c0.036-0.139 0.071-0.279 0.107-0.419l0.105 0.026c-0.036 0.141-0.071 0.281-0.107 0.42zM23.165 14.197c-0.084-0.117-0.169-0.233-0.256-0.347l0.086-0.065c0.087 0.116 0.173 0.232 0.257 0.35l-0.088 0.063zM22.645 13.509c-0.091-0.114-0.184-0.226-0.275-0.332l0.082-0.070c0.092 0.107 0.185 0.219 0.277 0.335l-0.084 0.068zM36.886 13.412l-0.105-0.026 0.104-0.42 0.105 0.026-0.104 0.42zM22.084 12.855c-0.099-0.107-0.2-0.211-0.299-0.309l0.076-0.077c0.101 0.1 0.203 0.205 0.303 0.313l-0.079 0.073zM37.094 12.573l-0.105-0.026c0.035-0.14 0.070-0.28 0.106-0.42l0.105 0.027c-0.036 0.14-0.071 0.28-0.106 0.419zM5.873 12.312c-0.144-0.003-0.291-0.010-0.435-0.024l0.010-0.108c0.142 0.013 0.286 0.021 0.428 0.023l-0.002 0.108zM6.309 12.303l-0.006-0.108c0.142-0.008 0.286-0.021 0.426-0.039l0.014 0.107c-0.143 0.019-0.289 0.032-0.434 0.040zM21.472 12.252c-0.107-0.096-0.217-0.19-0.327-0.278l0.068-0.084c0.111 0.089 0.222 0.184 0.331 0.281l-0.072 0.081zM5.005 12.233c-0.143-0.023-0.287-0.052-0.428-0.085l0.025-0.105c0.138 0.033 0.279 0.061 0.42 0.084l-0.017 0.107zM7.173 12.191l-0.022-0.106c0.139-0.029 0.279-0.063 0.416-0.103l0.030 0.104c-0.139 0.040-0.281 0.075-0.424 0.105zM4.157 12.032c-0.139-0.044-0.277-0.092-0.411-0.145l0.040-0.101c0.132 0.052 0.267 0.1 0.404 0.143l-0.032 0.103zM8.012 11.961l-0.032-0.103c0.138-0.043 0.276-0.086 0.412-0.129l0.033 0.103c-0.137 0.043-0.274 0.087-0.413 0.129zM37.308 11.735l-0.104-0.028c0.037-0.14 0.074-0.28 0.113-0.42l0.104 0.029c-0.039 0.139-0.076 0.279-0.113 0.418zM20.804 11.715c-0.116-0.083-0.235-0.164-0.355-0.24l0.058-0.091c0.122 0.077 0.243 0.159 0.36 0.243l-0.063 0.088zM3.347 11.713c-0.131-0.063-0.261-0.131-0.386-0.203l0.054-0.094c0.123 0.070 0.25 0.138 0.379 0.199l-0.047 0.097zM8.836 11.7l-0.033-0.103c0.138-0.044 0.275-0.089 0.411-0.133l0.033 0.103c-0.136 0.044-0.273 0.089-0.411 0.133zM9.659 11.432l-0.034-0.103 0.411-0.134 0.033 0.103-0.411 0.134zM2.591 11.279c-0.12-0.082-0.239-0.169-0.351-0.258l0.067-0.085c0.111 0.088 0.227 0.173 0.345 0.254l-0.061 0.089zM20.081 11.257c-0.124-0.069-0.252-0.135-0.381-0.196l0.047-0.097c0.13 0.062 0.26 0.129 0.386 0.199l-0.052 0.095zM10.481 11.166l-0.033-0.103c0.138-0.044 0.276-0.087 0.413-0.13l0.032 0.103c-0.137 0.042-0.274 0.086-0.412 0.13zM11.306 10.911l-0.031-0.104c0.139-0.041 0.277-0.082 0.416-0.121l0.029 0.104c-0.138 0.039-0.276 0.079-0.414 0.121zM37.538 10.901l-0.104-0.030c0.040-0.139 0.082-0.277 0.125-0.415l0.103 0.032c-0.042 0.137-0.084 0.275-0.124 0.413zM19.309 10.888c-0.119-0.049-0.241-0.095-0.363-0.138l-0.038-0.013 0.035-0.102 0.028 0.010c0.134 0.047 0.258 0.094 0.378 0.143l-0.041 0.1zM1.909 10.735c-0.106-0.099-0.21-0.203-0.307-0.31l0.080-0.073c0.096 0.104 0.197 0.207 0.301 0.304l-0.074 0.079zM12.136 10.676l-0.028-0.104c0.14-0.037 0.28-0.073 0.42-0.107l0.025 0.105c-0.139 0.034-0.279 0.069-0.418 0.106zM18.498 10.605c-0.138-0.042-0.277-0.081-0.414-0.117l0.027-0.105c0.138 0.036 0.279 0.075 0.418 0.118l-0.031 0.103zM12.974 10.473l-0.023-0.106c0.142-0.031 0.283-0.060 0.425-0.087l0.020 0.106c-0.141 0.026-0.281 0.055-0.422 0.086zM17.666 10.389c-0.139-0.030-0.281-0.057-0.422-0.081l0.018-0.106c0.142 0.024 0.286 0.052 0.427 0.082l-0.023 0.106zM13.82 10.313l-0.017-0.107c0.145-0.023 0.29-0.043 0.43-0.060l0.013 0.107c-0.139 0.017-0.282 0.037-0.426 0.060zM16.819 10.244c-0.142-0.018-0.286-0.033-0.427-0.044l0.009-0.108c0.143 0.012 0.289 0.027 0.432 0.045l-0.013 0.107zM14.674 10.208l-0.009-0.108c0.145-0.013 0.291-0.022 0.433-0.029l0.005 0.108c-0.141 0.006-0.285 0.016-0.429 0.028zM15.962 10.175c-0.125-0.005-0.249-0.007-0.373-0.007l-0.057 0-0.001-0.108 0.057-0c0.125 0 0.251 0.002 0.377 0.007l-0.004 0.108zM1.32 10.092c-0.089-0.115-0.174-0.235-0.253-0.356l0.091-0.059c0.077 0.119 0.161 0.236 0.248 0.349l-0.085 0.066zM37.794 10.077l-0.103-0.034c0.046-0.138 0.093-0.274 0.142-0.41l0.102 0.037c-0.048 0.135-0.095 0.271-0.141 0.407zM0.844 9.36c-0.069-0.128-0.133-0.26-0.191-0.393l0.099-0.043c0.057 0.13 0.119 0.259 0.187 0.384l-0.095 0.051zM38.087 9.266l-0.101-0.039c0.053-0.135 0.108-0.269 0.165-0.401l0.099 0.043c-0.057 0.131-0.111 0.264-0.164 0.398zM0.496 8.561c-0.046-0.136-0.088-0.277-0.123-0.419l0.105-0.026c0.035 0.138 0.075 0.276 0.121 0.41l-0.102 0.035zM38.428 8.476l-0.097-0.046c0.063-0.134 0.129-0.265 0.194-0.388l0.095 0.050c-0.065 0.122-0.129 0.252-0.192 0.384zM38.828 7.716l-0.093-0.055c0.074-0.127 0.151-0.251 0.23-0.37l0.090 0.059c-0.077 0.118-0.154 0.241-0.227 0.366zM0.284 7.715c-0.013-0.077-0.024-0.155-0.034-0.234-0.008-0.067-0.016-0.133-0.022-0.198l0.108-0.011c0.007 0.065 0.014 0.13 0.022 0.195 0.010 0.077 0.021 0.154 0.034 0.229l-0.107 0.018zM39.3 6.998l-0.087-0.064c0.087-0.117 0.177-0.232 0.268-0.341l0.083 0.069c-0.090 0.107-0.179 0.22-0.264 0.336zM0.195 6.849c-0.006-0.121-0.009-0.243-0.009-0.363l0-0.072 0.108 0.001-0 0.071c0 0.118 0.003 0.239 0.009 0.358l-0.108 0.005zM39.848 6.343l-0.078-0.074c0.1-0.106 0.205-0.208 0.31-0.305l0.073 0.080c-0.103 0.095-0.206 0.196-0.304 0.3zM0.312 5.987l-0.108-0.008c0.010-0.145 0.025-0.291 0.044-0.433l0.107 0.014c-0.019 0.14-0.033 0.284-0.044 0.426zM40.477 5.765l-0.068-0.084c0.112-0.090 0.23-0.177 0.348-0.26l0.062 0.089c-0.117 0.081-0.232 0.167-0.342 0.255zM41.179 5.28l-0.055-0.093c0.124-0.073 0.252-0.144 0.382-0.209l0.049 0.096c-0.127 0.064-0.254 0.134-0.375 0.206zM0.426 5.138l-0.106-0.021c0.029-0.143 0.063-0.285 0.101-0.424l0.104 0.029c-0.038 0.136-0.071 0.277-0.1 0.417zM0.654 4.313l-0.102-0.036c0.048-0.136 0.102-0.273 0.16-0.406l0.099 0.043c-0.057 0.13-0.11 0.264-0.157 0.398zM0.997 3.529l-0.096-0.050c0.068-0.128 0.141-0.255 0.217-0.378l0.092 0.057c-0.075 0.121-0.147 0.246-0.213 0.371zM1.45 2.802l-0.087-0.064c0.085-0.117 0.176-0.232 0.27-0.343l0.082 0.070c-0.092 0.108-0.181 0.222-0.265 0.337zM2.004 2.15l-0.077-0.076c0.103-0.105 0.21-0.205 0.318-0.299l0.071 0.082c-0.106 0.092-0.211 0.191-0.312 0.293z"></path>
<path fill="#3d3d3d" d="M41.989 4.873l-0.042-0.1c0.066-0.028 0.134-0.055 0.202-0.081l0.038 0.101c-0.067 0.026-0.134 0.052-0.199 0.079z"></path>
<path fill="#3d3d3d" d="M3.134 2.241c0.45-0.185 0.664-0.7 0.479-1.15s-0.7-0.664-1.15-0.479c-0.45 0.185-0.664 0.7-0.479 1.15s0.7 0.664 1.15 0.479z"></path>
<path fill="#3d3d3d" d="M18.223 11.293c0.486 0 0.881-0.394 0.881-0.881s-0.394-0.881-0.881-0.881c-0.486 0-0.881 0.394-0.881 0.881s0.394 0.881 0.881 0.881z"></path>
<path fill="#3d3d3d" d="M42.169 5.624c0.487 0 0.881-0.394 0.881-0.881s-0.394-0.881-0.881-0.881c-0.486 0-0.88 0.394-0.88 0.881s0.394 0.881 0.88 0.881z"></path>
<path fill="#3d3d3d" d="M31.050 21.26c0.486 0 0.881-0.394 0.881-0.881s-0.394-0.881-0.881-0.881c-0.486 0-0.88 0.394-0.88 0.881s0.394 0.881 0.88 0.881z"></path>
</svg>
