<!-- Generated by IcoMoon.io -->
<svg version="1.1" xmlns="http://www.w3.org/2000/svg" width="32" height="32" viewBox="0 0 32 32">
<path fill="#fc0" d="M12.165 16.002l8.271-13.99-14.922 16.497h8.051l-5.687 13.233 11.535-15.739h-7.248z"></path>
<path fill="#fc0" d="M18.519 13.342l4.657-13.157-8.663 14.654h7.591l-12.082 16.486 16.621-17.983h-8.124z"></path>
<path fill="#fc0" d="M10.859 19.641h-4.023c0 0.982 0.692 1.802 1.609 1.99-0.242 1.316-0.941 2.849-2.067 3.833-0.854 0.746-1.811 1.048-2.843 0.898-1.303-0.19-2.249-0.986-2.662-2.241-0.983-2.984 1.372-6.776 3.903-9.33 2.18-2.2 3.177-4.312 2.964-6.278-0.13-1.196-0.684-2.1-1.204-2.704 0.468-0.72 0.389-1.696-0.238-2.328l-0.403 0.407-1.294-1.305c-0.090-0.091-0.236-0.091-0.326 0l-0.043 0.043c-0.090 0.091-0.090 0.238 0 0.329l1.294 1.305-1.056 1.066-1.294-1.305c-0.090-0.091-0.236-0.091-0.326 0l-0.043 0.043c-0.090 0.091-0.090 0.238 0 0.329l1.294 1.305-0.403 0.407c0.66 0.666 1.696 0.718 2.417 0.16 0.445 0.532 0.909 1.309 1.018 2.316 0.192 1.771-0.746 3.715-2.789 5.776-5.106 5.152-4.391 8.926-4.050 9.96 0.483 1.466 1.632 2.434 3.154 2.656 0.197 0.029 0.393 0.043 0.587 0.043 0.986 0 1.924-0.369 2.743-1.085 1.254-1.096 2.026-2.812 2.281-4.27 1.011-0.107 1.8-0.97 1.8-2.019z"></path>
<path fill="#fc0" d="M27.563 26.207l0.403-0.407c-0.66-0.666-1.696-0.718-2.417-0.16-0.445-0.532-0.909-1.309-1.018-2.316-0.192-1.771 0.746-3.715 2.789-5.776 5.105-5.152 4.391-8.926 4.050-9.96-0.483-1.466-1.632-2.434-3.154-2.656-1.199-0.175-2.35 0.185-3.33 1.042-1.254 1.096-2.026 2.812-2.281 4.27-1.011 0.107-1.8 0.97-1.8 2.019h4.023c0-0.982-0.692-1.802-1.609-1.99 0.242-1.316 0.941-2.849 2.067-3.833 0.854-0.746 1.811-1.048 2.843-0.898 1.303 0.19 2.249 0.986 2.662 2.241 0.983 2.984-1.371 6.776-3.903 9.33-2.18 2.2-3.177 4.312-2.964 6.278 0.13 1.196 0.684 2.1 1.204 2.704-0.468 0.72-0.389 1.696 0.238 2.328l0.403-0.407 1.294 1.305c0.090 0.091 0.236 0.091 0.326 0l0.043-0.043c0.090-0.091 0.090-0.238 0-0.329l-1.294-1.305 1.056-1.066 1.294 1.305c0.090 0.091 0.236 0.091 0.326 0l0.043-0.043c0.090-0.091 0.090-0.238 0-0.329l-1.294-1.305z"></path>
</svg>
