<!-- Generated by IcoMoon.io -->
<svg version="1.1" xmlns="http://www.w3.org/2000/svg" width="47" height="32" viewBox="0 0 47 32">
<path fill="#4285f4" d="M10.581 31.845v-16.399l-5.576-4.653-5-2.582v20.74c0 1.601 1.422 2.894 3.173 2.894h7.404z"></path>
<path fill="#34a853" d="M35.965 31.845h7.404c1.756 0 3.173-1.298 3.173-2.894v-20.74l-5.664 2.957-4.913 4.277v16.4z"></path>
<path fill="#ea4335" d="M10.581 15.444l-0.759-6.408 0.759-6.133 12.692 8.682 12.692-8.682 0.849 5.802-0.849 6.739-12.692 8.682-12.692-8.682z"></path>
<path fill="#fbbc04" d="M35.965 2.902v12.541l10.577-7.235v-3.859c0-3.579-4.479-5.619-7.615-3.473l-2.962 2.026z"></path>
<path fill="#c5221f" d="M0.005 8.208l10.577 7.235v-12.541l-2.962-2.026c-3.141-2.147-7.615-0.106-7.615 3.473v3.859z"></path>
</svg>
