<!-- Generated by IcoMoon.io -->
<svg version="1.1" xmlns="http://www.w3.org/2000/svg" width="46" height="32" viewBox="0 0 46 32">
<path fill="#fff" d="M44.19 32h-42.667c-0.404 0-0.792-0.153-1.077-0.426s-0.446-0.643-0.446-1.029 0.161-0.756 0.446-1.029c0.286-0.273 0.673-0.426 1.077-0.426h42.667c0.404 0 0.792 0.153 1.078 0.426s0.446 0.643 0.446 1.029-0.16 0.756-0.446 1.029c-0.286 0.273-0.673 0.426-1.078 0.426z"></path>
<path fill="#fff" d="M44.19 17.455h-42.667c-0.404 0-0.792-0.153-1.077-0.426s-0.446-0.643-0.446-1.029c0-0.386 0.161-0.756 0.446-1.028s0.673-0.426 1.077-0.426h42.667c0.404 0 0.792 0.153 1.078 0.426s0.446 0.643 0.446 1.028-0.16 0.756-0.446 1.029c-0.286 0.273-0.673 0.426-1.078 0.426z"></path>
<path fill="#fff" d="M44.19 2.909h-42.667c-0.404 0-0.792-0.153-1.077-0.426s-0.446-0.643-0.446-1.029c0-0.386 0.161-0.756 0.446-1.028s0.673-0.426 1.077-0.426h42.667c0.404 0 0.792 0.153 1.078 0.426s0.446 0.643 0.446 1.028-0.16 0.756-0.446 1.029c-0.286 0.273-0.673 0.426-1.078 0.426z"></path>
</svg>
