<!-- Generated by IcoMoon.io -->
<svg version="1.1" xmlns="http://www.w3.org/2000/svg" width="32" height="32" viewBox="0 0 32 32">
<path fill="#8bbc57" d="M17.531 18.909l-0.523 1.554 0.56 1.646h-0.528l-0.41-1.266-0.414 1.266h-0.469l0.56-1.646-0.523-1.554h0.519l0.378 1.179 0.387-1.179h0.464zM19.486 18.909l-0.523 1.554 0.56 1.646h-0.528l-0.41-1.266-0.414 1.266h-0.469l0.56-1.646-0.523-1.554h0.519l0.378 1.179 0.387-1.179h0.464zM19.772 18.909h0.5v3.2h-0.5v-3.2zM22.1 18.909c0.261 0 0.449 0.061 0.564 0.183 0.118 0.122 0.177 0.306 0.177 0.553v0.114c0 0.165-0.026 0.3-0.077 0.407s-0.133 0.186-0.246 0.238c0.137 0.052 0.232 0.137 0.287 0.256 0.058 0.116 0.086 0.259 0.086 0.43v0.261c0 0.247-0.064 0.436-0.191 0.567-0.127 0.128-0.317 0.192-0.569 0.192h-0.787v-3.2h0.755zM21.845 20.669v0.983h0.287c0.085 0 0.149-0.023 0.191-0.069 0.046-0.046 0.068-0.128 0.068-0.247v-0.279c0-0.149-0.026-0.252-0.077-0.306-0.048-0.055-0.13-0.082-0.246-0.082h-0.223zM21.845 19.366v0.846h0.196c0.094 0 0.167-0.024 0.218-0.073 0.055-0.049 0.082-0.137 0.082-0.265v-0.178c0-0.116-0.021-0.2-0.064-0.252-0.039-0.052-0.103-0.078-0.191-0.078h-0.241zM23.189 18.909h0.5v3.2h-0.5v-3.2zM24.71 20.834l-0.155 0.293v0.983h-0.5v-3.2h0.5v1.394l0.664-1.394h0.491l-0.696 1.426 0.696 1.774h-0.514l-0.487-1.275z"></path>
<path fill="#8bbc57" d="M6.528 9.6c0.254 0 0.443 0.067 0.565 0.201 0.126 0.134 0.189 0.33 0.189 0.588v0.415c0 0.258-0.063 0.454-0.189 0.588-0.123 0.134-0.311 0.2-0.565 0.2h-0.239v1.199h-0.506v-3.191h0.745zM6.289 10.056v1.080h0.239c0.080 0 0.141-0.021 0.184-0.064s0.064-0.122 0.064-0.237v-0.479c0-0.115-0.021-0.194-0.064-0.237s-0.104-0.064-0.184-0.064h-0.239zM7.512 9.6h0.506v3.191h-0.506v-3.191zM8.893 10.945h0.694v0.456h-0.694v0.934h0.873v0.456h-1.379v-3.191h1.379v0.456h-0.873v0.889zM11.487 10.056h-0.588v1.942c0 0.161-0.020 0.293-0.060 0.397s-0.094 0.185-0.161 0.246c-0.068 0.058-0.146 0.099-0.235 0.123-0.086 0.024-0.176 0.037-0.271 0.037-0.046 0-0.087 0-0.124 0s-0.077-0.003-0.12-0.009v-0.456c0.028 0.003 0.057 0.005 0.087 0.005s0.060 0 0.087 0c0.080 0 0.147-0.020 0.202-0.059 0.058-0.040 0.087-0.122 0.087-0.246v-2.434h1.6v3.191h-0.506v-2.735z"></path>
<path fill="#fc0" d="M8.816 17.712c0.044 0.005 0.090 0.007 0.139 0.007s0.095 0 0.139 0c0.127 0 0.234-0.032 0.322-0.097 0.093-0.065 0.139-0.199 0.139-0.403v-3.983h2.547v4.476h0.41v1.343h-0.82v-0.597h-2.057v0.597h-0.82v-1.343zM10.361 17.16c0 0.219-0.022 0.403-0.066 0.552h1.003v-3.73h-0.937v3.178zM14.026 13.236c0.405 0 0.705 0.109 0.9 0.328 0.2 0.219 0.3 0.54 0.3 0.962v0.679c0 0.423-0.1 0.743-0.3 0.962-0.195 0.219-0.495 0.328-0.9 0.328h-0.381v1.962h-0.805v-5.221h1.186zM13.646 13.982v1.768h0.381c0.127 0 0.225-0.035 0.293-0.104s0.102-0.199 0.102-0.388v-0.783c0-0.189-0.034-0.318-0.102-0.388s-0.166-0.104-0.293-0.104h-0.381zM15.593 13.236h0.805v5.221h-0.805v-5.221zM18.699 16.944l0.549-3.707h1.12v5.221h-0.761v-3.745l-0.556 3.745h-0.761l-0.6-3.692v3.692h-0.703v-5.221h1.12l0.593 3.707z"></path>
<path fill="#fc0" d="M13.994 27.638c0.662 0.718 0.481 1.893 0.481 1.893s-1.255 0.011-1.917-0.707c-0.662-0.718-0.482-1.893-0.482-1.893s1.255-0.011 1.917 0.707z"></path>
<path fill="#fc0" d="M12.442 30.074c0.819-0.558 2.038-0.279 2.038-0.279s-0.108 1.183-0.926 1.74c-0.818 0.558-2.037 0.279-2.037 0.279s0.107-1.183 0.926-1.74z"></path>
<path fill="#fc0" d="M10.096 29.765c0.868-0.485 2.056-0.103 2.056-0.103s-0.22 1.169-1.089 1.654c-0.868 0.485-2.055 0.103-2.055 0.103s0.22-1.169 1.089-1.654z"></path>
<path fill="#fc0" d="M8.058 28.85c0.957-0.301 2.032 0.309 2.032 0.309s-0.476 1.099-1.432 1.4c-0.957 0.301-2.032-0.309-2.032-0.309s0.476-1.099 1.432-1.4z"></path>
<path fill="#fc0" d="M6.258 27.587c1.005-0.078 1.895 0.758 1.895 0.758s-0.738 0.961-1.743 1.038c-1.005 0.078-1.895-0.758-1.895-0.758s0.738-0.961 1.743-1.038z"></path>
<path fill="#fc0" d="M4.742 25.819c0.976 0.235 1.533 1.298 1.533 1.298s-1.027 0.683-2.003 0.448c-0.976-0.235-1.533-1.298-1.533-1.298s1.027-0.683 2.003-0.448z"></path>
<path fill="#fc0" d="M3.584 23.889c0.913 0.402 1.251 1.546 1.251 1.546s-1.143 0.491-2.056 0.088c-0.913-0.402-1.251-1.546-1.251-1.546s1.143-0.49 2.056-0.088z"></path>
<path fill="#fc0" d="M2.88 21.748c0.76 0.625 0.752 1.812 0.752 1.812s-1.241 0.174-2.001-0.452c-0.76-0.625-0.752-1.812-0.752-1.812s1.241-0.174 2.002 0.452z"></path>
<path fill="#fc0" d="M2.591 19.508c0.607 0.761 0.339 1.921 0.339 1.921s-1.252-0.073-1.859-0.834c-0.607-0.761-0.339-1.921-0.339-1.921s1.252 0.073 1.859 0.834z"></path>
<path fill="#fc0" d="M2.644 17.14c0.486 0.835 0.046 1.947 0.046 1.947s-1.228-0.241-1.714-1.076c-0.486-0.835-0.046-1.947-0.046-1.947s1.228 0.241 1.714 1.076z"></path>
<path fill="#fc0" d="M11.743 27.266c0.571 0.785 0.248 1.933 0.248 1.933s-1.247-0.126-1.818-0.911c-0.571-0.785-0.248-1.933-0.248-1.933s1.247 0.126 1.818 0.911z"></path>
<path fill="#fc0" d="M9.641 26.382c0.303 0.909-0.359 1.918-0.359 1.918s-1.154-0.465-1.457-1.374c-0.303-0.909 0.358-1.918 0.358-1.918s1.154 0.465 1.457 1.374z"></path>
<path fill="#fc0" d="M7.75 25.014c0.149 0.943-0.672 1.842-0.672 1.842s-1.062-0.63-1.211-1.573c-0.149-0.943 0.672-1.842 0.672-1.842s1.062 0.631 1.211 1.574z"></path>
<path fill="#fc0" d="M6.233 23.172c-0.012 0.954-0.974 1.717-0.974 1.717s-0.942-0.783-0.93-1.737c0.012-0.954 0.974-1.717 0.974-1.717s0.942 0.783 0.93 1.737z"></path>
<path fill="#fc0" d="M5.28 20.996c-0.232 0.928-1.346 1.475-1.346 1.475s-0.739-0.959-0.507-1.887c0.232-0.928 1.346-1.475 1.346-1.475s0.739 0.959 0.507 1.887z"></path>
<path fill="#fc0" d="M4.801 18.295c-0.223 0.892-1.294 1.418-1.294 1.418s-0.71-0.922-0.487-1.814c0.223-0.892 1.294-1.418 1.294-1.418s0.71 0.922 0.487 1.814z"></path>
<path fill="#fc0" d="M4.097 15.678c-0.056 0.915-1.016 1.608-1.016 1.608s-0.868-0.791-0.812-1.707c0.056-0.915 1.016-1.608 1.016-1.608s0.868 0.791 0.812 1.707z"></path>
<path fill="#fc0" d="M2.866 18.956c0.070 4.541 3.159 8.658 7.711 10.144 1.249 0.407 2.559 0.599 3.878 0.595 0.084-0 0.231-0.121 0.084-0.12-4.737 0.016-9.089-2.785-10.743-6.999-0.462-1.178-0.692-2.421-0.711-3.676-0.001-0.066-0.22-0.024-0.219 0.057z"></path>
<path fill="#8bbc57" d="M15.45 31.756l-0.119-0.014-0.009-1.866-0.009-1.865 0.538-0.028c5.898-0.295 10.842-4.179 12.101-9.501 1.089-4.613-0.87-9.439-4.967-12.237-2.134-1.458-4.618-2.271-7.254-2.378l-0.538-0.023-0.010-1.938-0.010-1.934 0.426-0.028c0.231-0.016 0.715-0.022 1.072-0.009 1.061 0.035 1.036 0.002 1.003 1.362-0.012 0.531-0.020 0.975-0.013 0.985s0.163 0.043 0.347 0.064c0.748 0.098 1.586 0.283 2.324 0.515 0.217 0.068 0.398 0.122 0.398 0.118 0.004-0.004 0.075-0.171 0.157-0.372 0.457-1.079 0.657-1.48 0.758-1.531 0.173-0.092 0.372-0.067 0.748 0.091 0.409 0.172 1.346 0.633 1.563 0.77 0.174 0.108 0.29 0.282 0.291 0.431 0 0.065-0.175 0.456-0.446 0.995l-0.447 0.886 0.337 0.224c0.67 0.448 1.286 0.939 1.845 1.467l0.279 0.268 0.748-0.644c0.791-0.68 0.866-0.724 1.105-0.646 0.185 0.061 0.718 0.658 1.343 1.513 0.269 0.366 0.328 0.555 0.246 0.762-0.029 0.069-0.298 0.3-0.827 0.702l-0.784 0.6 0.2 0.326c0.299 0.486 0.736 1.382 0.977 1.984l0.209 0.53 0.959-0.252c0.808-0.215 0.977-0.249 1.071-0.22 0.119 0.039 0.232 0.144 0.301 0.278 0.066 0.127 0.353 1.289 0.446 1.794l0.030 0.41-0.023 0.219c-0.053 0.124-0.104 0.182-0.19 0.219-0.065 0.026-0.53 0.13-1.031 0.231l-0.913 0.183 0.026 0.254c0.012 0.142 0.030 0.294 0.038 0.345 0.030 0.189 0.023 1.778-0.011 2.16-0.021 0.218-0.031 0.4-0.027 0.404 0.007 0.004 0.437 0.089 0.961 0.188 0.524 0.103 0.983 0.202 1.023 0.22 0.109 0.061 0.193 0.254 0.19 0.454-0.005 0.393-0.387 2.046-0.519 2.254-0.043 0.062-0.137 0.143-0.212 0.183-0.155 0.077-0.072 0.091-1.474-0.273l-0.604-0.157-0.185 0.488c-0.214 0.569-0.646 1.473-0.954 2.001l-0.215 0.368 0.786 0.589c0.435 0.325 0.808 0.629 0.83 0.676 0.058 0.127 0.049 0.323-0.016 0.458-0.168 0.335-1.259 1.69-1.46 1.815-0.065 0.040-0.177 0.074-0.249 0.074-0.123 0.001-0.199-0.050-0.706-0.476-0.315-0.26-0.667-0.557-0.779-0.654l-0.21-0.181-0.277 0.27c-0.539 0.519-1.197 1.057-1.834 1.489l-0.331 0.227 0.452 0.881c0.277 0.533 0.456 0.925 0.456 0.99 0.001 0.145-0.114 0.324-0.28 0.43-0.205 0.132-1.166 0.617-1.563 0.79-0.389 0.169-0.595 0.192-0.768 0.084-0.087-0.054-0.167-0.192-0.401-0.714-0.157-0.359-0.343-0.765-0.405-0.911l-0.12-0.258-0.389 0.129c-0.616 0.203-1.298 0.37-1.969 0.479-0.343 0.053-0.642 0.105-0.667 0.113-0.032 0.007-0.039 0.091-0.024 0.313 0.008 0.167 0.028 0.604 0.041 0.974 0.026 0.774 0.001 0.869-0.244 0.998-0.13 0.066-0.22 0.074-1.083 0.085-0.52 0.006-0.996 0.002-1.058-0.006z"></path>
<path fill="#fc0" d="M0.183 11.249c0.288-1.722 1.271-1.753 2.12-3.581 0.478 1.96 1.435 2.184 1.383 3.929-0.080 2.676-3.945 2.292-3.503-0.348z"></path>
<path fill="#fff" d="M2.186 8.673c-0.704 1.077-1.416 1.361-1.633 2.657-0.195 1.164 0.656 1.77 1.456 1.712-0.612-0.17-1.112-0.742-0.957-1.662 0.199-1.184 0.719-1.432 1.134-2.706z"></path>
<path fill="#fc0" d="M2.927 6.606c0.325-1.019 0.924-0.951 1.599-1.986 0.119 1.232 0.68 1.452 0.497 2.507-0.282 1.617-2.594 1.043-2.095-0.521z"></path>
<path fill="#fff" d="M4.367 5.22c-0.521 0.592-0.978 0.701-1.223 1.468-0.22 0.689 0.244 1.133 0.735 1.167-0.356-0.157-0.61-0.548-0.436-1.093 0.224-0.701 0.561-0.805 0.924-1.542z"></path>
</svg>
